JosefinSlab-Light-TTF.ufo
<glyph name="exclam" format="1">
  <advance width="201"/>
  <unicode hex="0021"/>
  <outline>
    <contour>
      <point x="100" y="29" type="qcurve" name="dv01"/>
      <point x="90" y="29"/>
      <point x="74" y="44"/>
      <point x="74" y="55" type="qcurve" name="sh01"/>
      <point x="74" y="67"/>
      <point x="90" y="82"/>
      <point x="100" y="82" type="qcurve" name="dv02"/>
      <point x="110" y="82"/>
      <point x="126" y="67"/>
      <point x="126" y="55" type="qcurve" name="sh03"/>
      <point x="126" y="44"/>
      <point x="110" y="29"/>
    </contour>
    <contour>
      <point x="86" y="750" type="line" name="at01"/>
      <point x="114" y="750" type="line"/>
      <point x="114" y="166" type="line" name="sh02"/>
      <point x="86" y="166" type="line" name="ah01"/>
    </contour>
  </outline>
</glyph>
<glyph name="quotedbl" format="1">
  <advance width="301"/>
  <unicode hex="0022"/>
  <outline>
    <contour>
      <point x="196" y="472" type="line" name="sv02"/>
      <point x="196" y="720" type="line" name="sh01"/>
      <point x="227" y="720" type="line" name="sh02"/>
      <point x="226" y="657"/>
      <point x="224" y="535"/>
      <point x="223" y="472" type="qcurve"/>
    </contour>
    <contour>
      <point x="63" y="472" type="line" name="sv01"/>
      <point x="63" y="720" type="line" name="ah01"/>
      <point x="94" y="720" type="line" name="sh03"/>
      <point x="93" y="657"/>
      <point x="91" y="535"/>
      <point x="90" y="472" type="qcurve"/>
    </contour>
  </outline>
</glyph>
<glyph name="numbersign" format="1">
  <advance width="571"/>
  <unicode hex="0023"/>
  <outline>
    <contour>
      <point x="190" y="400" type="line" name="ih01"/>
      <point x="185" y="361"/>
      <point x="177" y="284"/>
      <point x="172" y="245" type="qcurve" name="ih02"/>
      <point x="328" y="245" type="line" name="ih03"/>
      <point x="333" y="284"/>
      <point x="341" y="361"/>
      <point x="346" y="400" type="qcurve" name="ih04"/>
    </contour>
    <contour>
      <point x="299" y="0" type="line" name="sh04"/>
      <point x="306" y="55"/>
      <point x="318" y="163"/>
      <point x="324" y="218" type="qcurve" name="ih05"/>
      <point x="168" y="218" type="line" name="ih06"/>
      <point x="162" y="163"/>
      <point x="150" y="55"/>
      <point x="143" y="0" type="qcurve" name="sh03"/>
      <point x="115" y="0" type="line" name="ah01"/>
      <point x="122" y="55"/>
      <point x="134" y="163"/>
      <point x="140" y="218" type="qcurve" name="ih07"/>
      <point x="28" y="218" type="line" name="sh06"/>
      <point x="31" y="245" type="line" name="iv02"/>
      <point x="144" y="245" type="line" name="ih08"/>
      <point x="149" y="284"/>
      <point x="157" y="361"/>
      <point x="162" y="400" type="qcurve" name="ih09"/>
      <point x="51" y="400" type="line" name="sh07"/>
      <point x="54" y="427" type="line" name="iv01"/>
      <point x="166" y="427" type="line" name="ih10"/>
      <point x="172" y="481"/>
      <point x="185" y="589"/>
      <point x="192" y="643" type="qcurve" name="sh01"/>
      <point x="220" y="643" type="line" name="sh02"/>
      <point x="213" y="589"/>
      <point x="200" y="481"/>
      <point x="194" y="427" type="qcurve" name="ih11"/>
      <point x="350" y="427" type="line" name="ih12"/>
      <point x="356" y="481"/>
      <point x="369" y="589"/>
      <point x="376" y="643" type="qcurve" name="sh05"/>
      <point x="404" y="643" type="line" name="sh08"/>
      <point x="397" y="589"/>
      <point x="384" y="481"/>
      <point x="378" y="427" type="qcurve" name="ih13"/>
      <point x="507" y="427" type="line" name="sh10"/>
      <point x="504" y="400" type="line"/>
      <point x="374" y="400" type="line" name="ih14"/>
      <point x="369" y="361"/>
      <point x="361" y="284"/>
      <point x="356" y="245" type="qcurve" name="ih15"/>
      <point x="484" y="245" type="line" name="sh11"/>
      <point x="484" y="238"/>
      <point x="482" y="225"/>
      <point x="481" y="218" type="qcurve"/>
      <point x="352" y="218" type="line" name="ih16"/>
      <point x="346" y="163"/>
      <point x="334" y="55"/>
      <point x="327" y="0" type="qcurve" name="sh09"/>
    </contour>
  </outline>
</glyph>
<glyph name="ampersand" format="1">
  <advance width="700"/>
  <unicode hex="0026"/>
  <outline>
    <contour>
      <point x="469" y="375" type="line" name="sh02"/>
      <point x="601" y="375" type="line" name="sh03"/>
      <point x="601" y="348" type="line" name="sv01"/>
      <point x="497" y="348" type="line" name="sh01"/>
      <point x="497" y="270" type="line"/>
      <point x="497" y="249"/>
      <point x="498" y="204"/>
      <point x="496.5" y="182.0" type="qcurve" smooth="yes" name="inserted"/>
      <point x="495" y="160" name="fh01"/>
      <point x="484" y="116" name="fh02"/>
      <point x="473" y="96" type="qcurve" name="dh02"/>
      <point x="535" y="-4" type="line" name="sh04"/>
      <point x="513" y="-19" type="line" name="sv02"/>
      <point x="458" y="70" type="line" name="iv01"/>
      <point x="431" y="35"/>
      <point x="350" y="-7"/>
      <point x="301" y="-7" type="qcurve" name="ab01"/>
      <point x="260" y="-7"/>
      <point x="189" y="23"/>
      <point x="162.5" y="49.5" type="qcurve" smooth="yes" name="inserted"/>
      <point x="136" y="76" name="fv01"/>
      <point x="106" y="146"/>
      <point x="106" y="187" type="qcurve" name="dh01"/>
      <point x="106" y="223"/>
      <point x="131" y="288" name="fv02"/>
      <point x="152.5" y="313.5" type="qcurve" smooth="yes" name="inserted"/>
      <point x="174" y="339" name="fh03"/>
      <point x="233" y="373" name="fh04"/>
      <point x="268" y="379" type="qcurve" name="ih02"/>
      <point x="197" y="496" type="line"/>
      <point x="179" y="526"/>
      <point x="164" y="590" name="ih01"/>
      <point x="169.0" y="621.0" type="qcurve" smooth="yes" name="inserted"/>
      <point x="174" y="652" name="fh05"/>
      <point x="210" y="706" name="fh06"/>
      <point x="243" y="726" type="qcurve"/>
      <point x="271" y="743"/>
      <point x="330" y="750" name="at01"/>
      <point x="358.0" y="745.0" type="qcurve" smooth="yes" name="inserted"/>
      <point x="386" y="740"/>
      <point x="435" y="718"/>
      <point x="454" y="706" type="qcurve" name="ih03"/>
      <point x="443" y="682" type="line" name="iv02"/>
      <point x="422" y="694"/>
      <point x="377" y="715"/>
      <point x="354.0" y="719.5" type="qcurve" smooth="yes" name="inserted"/>
      <point x="331" y="724" name="sv03"/>
      <point x="284" y="718"/>
      <point x="261" y="704" type="qcurve" name="fh07"/>
      <point x="232" y="686" name="fh08"/>
      <point x="200" y="639" name="fv03"/>
      <point x="196.0" y="612.5" type="qcurve" smooth="yes" name="inserted"/>
      <point x="192" y="586" name="sh06"/>
      <point x="205" y="532"/>
      <point x="221" y="506" type="qcurve" name="fh09"/>
      <point x="450" y="133" type="line" name="ih04"/>
      <point x="459.5" y="149.5" name="inserted"/>
      <point x="469.0" y="185.5"/>
      <point x="469" y="205" type="qcurve"/>
    </contour>
    <contour>
      <point x="134" y="187" type="qcurve" name="sh07"/>
      <point x="134" y="152"/>
      <point x="160" y="91" name="fh10"/>
      <point x="182.5" y="68.5" type="qcurve" smooth="yes" name="inserted"/>
      <point x="205" y="46" name="fh11"/>
      <point x="266" y="20"/>
      <point x="301" y="20" type="qcurve" name="sv04"/>
      <point x="346" y="20"/>
      <point x="420" y="61" name="fh12"/>
      <point x="442" y="96" type="qcurve" name="sh05"/>
      <point x="284" y="353" type="line" name="ih05"/>
      <point x="252" y="350" name="fh13"/>
      <point x="197" y="322" name="fh14"/>
      <point x="177.0" y="300.0" type="qcurve" smooth="yes" name="inserted"/>
      <point x="157" y="278" name="fh15"/>
      <point x="134" y="220"/>
    </contour>
  </outline>
</glyph>
<glyph name="quotesingle" format="1">
  <advance width="150"/>
  <unicode hex="0027"/>
  <outline>
    <contour>
      <point x="62" y="472" type="line" name="sv01"/>
      <point x="62" y="720" type="line" name="ah01"/>
      <point x="93" y="720" type="line" name="sh01"/>
      <point x="92" y="657"/>
      <point x="90" y="535"/>
      <point x="89" y="472" type="qcurve"/>
    </contour>
  </outline>
</glyph>
<glyph name="parenleft" format="1">
  <advance width="400"/>
  <unicode hex="0028"/>
  <outline>
    <contour>
      <point x="141" y="292" type="qcurve" name="ah01"/>
      <point x="141" y="367"/>
      <point x="169" y="503"/>
      <point x="192.0" y="561.0" type="qcurve" smooth="yes" name="inserted"/>
      <point x="215" y="619"/>
      <point x="274" y="714"/>
      <point x="306" y="747" type="qcurve" name="sh02"/>
      <point x="310" y="741"/>
      <point x="318" y="730"/>
      <point x="323" y="724" type="qcurve" name="sh01"/>
      <point x="294" y="691"/>
      <point x="239" y="601"/>
      <point x="217.0" y="546.0" type="qcurve" smooth="yes" name="inserted"/>
      <point x="195" y="491"/>
      <point x="169" y="363"/>
      <point x="169" y="292" type="qcurve" name="sh03"/>
      <point x="169" y="221"/>
      <point x="195" y="93"/>
      <point x="217.0" y="38.0" type="qcurve" smooth="yes" name="inserted"/>
      <point x="239" y="-17"/>
      <point x="294" y="-107"/>
      <point x="323" y="-140" type="qcurve" name="sh04"/>
      <point x="318" y="-146"/>
      <point x="310" y="-157"/>
      <point x="306" y="-163" type="qcurve" name="sh05"/>
      <point x="274" y="-130"/>
      <point x="215" y="-35"/>
      <point x="192.0" y="23.0" type="qcurve" smooth="yes" name="inserted"/>
      <point x="169" y="81"/>
      <point x="141" y="217"/>
    </contour>
  </outline>
</glyph>
<glyph name="plus" format="1">
  <advance width="543"/>
  <unicode hex="002B"/>
  <outline>
    <contour>
      <point x="252" y="51" type="line" name="sv01"/>
      <point x="252" y="218" type="line" name="ah01"/>
      <point x="86" y="218" type="line" name="sh01"/>
      <point x="86" y="245" type="line"/>
      <point x="252" y="245" type="line" name="sh02"/>
      <point x="252" y="411" type="line" name="sv02"/>
      <point x="280" y="411" type="line"/>
      <point x="280" y="245" type="line" name="sh04"/>
      <point x="446" y="245" type="line"/>
      <point x="446" y="218" type="line" name="sh05"/>
      <point x="280" y="218" type="line" name="sh03"/>
      <point x="280" y="51" type="line"/>
    </contour>
  </outline>
</glyph>
<glyph name="period" format="1">
  <advance width="163"/>
  <unicode hex="002E"/>
  <outline>
    <contour>
      <point x="59" y="26" type="qcurve" name="ah01"/>
      <point x="59" y="37"/>
      <point x="75" y="53"/>
      <point x="86" y="53" type="qcurve" name="sv01"/>
      <point x="97" y="53"/>
      <point x="112" y="37"/>
      <point x="112" y="26" type="qcurve" name="sh01"/>
      <point x="112" y="15"/>
      <point x="97" y="0"/>
      <point x="86" y="0" type="qcurve" name="ab01"/>
      <point x="75" y="0"/>
      <point x="59" y="15"/>
    </contour>
  </outline>
</glyph>
<glyph name="slash" format="1">
  <advance width="334"/>
  <unicode hex="002F"/>
  <outline>
    <contour>
      <point x="17" y="-19" type="line" name="ah01"/>
      <point x="87" y="171"/>
      <point x="225" y="546"/>
      <point x="295" y="736" type="qcurve" name="sh02"/>
      <point x="323" y="736" type="line" name="sh01"/>
      <point x="253" y="546" name="fh01"/>
      <point x="115" y="171"/>
      <point x="45" y="-19" type="qcurve" name="sh03"/>
    </contour>
  </outline>
</glyph>
<glyph name="zero" format="1">
  <advance width="616"/>
  <unicode hex="0030"/>
  <outline>
    <contour>
      <point x="36" y="327" type="qcurve" name="dh01"/>
      <point x="36" y="380"/>
      <point x="68" y="497"/>
      <point x="101.0" y="546.0" type="qcurve" smooth="yes" name="inserted"/>
      <point x="134" y="595" name="fh01"/>
      <point x="236" y="658" name="fv01"/>
      <point x="308" y="658" type="qcurve" name="at01"/>
      <point x="378" y="658" name="fh02"/>
      <point x="479" y="593" name="fh03"/>
      <point x="511.5" y="544.0" type="qcurve" smooth="yes" name="inserted"/>
      <point x="544" y="495" name="fh04"/>
      <point x="573" y="378"/>
      <point x="573" y="324" type="qcurve" name="dh02"/>
      <point x="573" y="253"/>
      <point x="528" y="132"/>
      <point x="491.0" y="87.5" type="qcurve" smooth="yes" name="inserted"/>
      <point x="454" y="43" name="fv02"/>
      <point x="355" y="-7"/>
      <point x="301" y="-7" type="qcurve" name="ab01"/>
      <point x="247" y="-7" name="fh05"/>
      <point x="150" y="45" name="fh06"/>
      <point x="114.0" y="89.5" type="qcurve" smooth="yes" name="inserted"/>
      <point x="78" y="134"/>
      <point x="36" y="256" name="fh07"/>
    </contour>
    <contour>
      <point x="65" y="328" type="qcurve" name="sh01"/>
      <point x="65" y="259" name="fh08"/>
      <point x="104" y="146" name="fh09"/>
      <point x="137.5" y="105.5" type="qcurve" smooth="yes" name="inserted"/>
      <point x="171" y="65" name="fh10"/>
      <point x="257" y="20" name="fh11"/>
      <point x="303" y="20" type="qcurve" name="sv01"/>
      <point x="349" y="20"/>
      <point x="436" y="63" name="fh12"/>
      <point x="469.5" y="103.0" type="qcurve" smooth="yes" name="inserted"/>
      <point x="503" y="143" name="fh13"/>
      <point x="545" y="255" name="fh14"/>
      <point x="545" y="323" type="qcurve" name="sh02"/>
      <point x="545" y="389"/>
      <point x="511" y="501" name="fh15"/>
      <point x="479.5" y="542.5" type="qcurve" smooth="yes" name="inserted"/>
      <point x="448" y="584" name="fh16"/>
      <point x="360" y="631"/>
      <point x="307" y="631" type="qcurve" name="sv02"/>
      <point x="254" y="631" name="fh17"/>
      <point x="165" y="586" name="fh18"/>
      <point x="133.0" y="545.5" type="qcurve" smooth="yes" name="inserted"/>
      <point x="101" y="505"/>
      <point x="65" y="394"/>
    </contour>
  </outline>
</glyph>
<glyph name="four" format="1">
  <advance width="510"/>
  <unicode hex="0034"/>
  <outline>
    <contour>
      <point x="298" y="27" type="line" name="sh02"/>
      <point x="375" y="27" type="line"/>
      <point x="375" y="183" type="line" name="sh01"/>
      <point x="37" y="183" type="line" name="dh01"/>
      <point x="403" y="658" type="line" name="at01"/>
      <point x="403" y="210" type="line" name="sh03"/>
      <point x="500" y="210" type="line"/>
      <point x="500" y="183" type="line" name="sh04"/>
      <point x="403" y="183" type="line" name="dh02"/>
      <point x="403" y="27" type="line" name="sv01"/>
      <point x="486" y="27" type="line" name="sh05"/>
      <point x="486" y="0" type="line"/>
      <point x="298" y="0" type="line" name="ab01"/>
    </contour>
    <contour>
      <point x="375" y="576" type="line" name="sv02"/>
      <point x="95" y="210" type="line" name="sh06"/>
      <point x="375" y="210" type="line" name="sh07"/>
    </contour>
  </outline>
</glyph>
<glyph name="five" format="1">
  <advance width="543"/>
  <unicode hex="0035"/>
  <outline>
    <contour>
      <point x="430" y="650" type="line"/>
      <point x="430" y="559" type="line" name="ih01"/>
      <point x="403" y="559" type="line" name="sh01"/>
      <point x="403" y="623" type="line"/>
      <point x="171" y="623" type="line" name="sv01"/>
      <point x="171" y="382" type="line" name="sh02"/>
      <point x="191" y="390"/>
      <point x="232" y="401"/>
      <point x="255" y="401" type="qcurve" name="iv01"/>
      <point x="297" y="401"/>
      <point x="373" y="369" name="fh01"/>
      <point x="401.0" y="341.5" type="qcurve" smooth="yes" name="inserted"/>
      <point x="429" y="314" name="fh02"/>
      <point x="462" y="240"/>
      <point x="462" y="198" type="qcurve" name="dh02"/>
      <point x="462" y="155"/>
      <point x="429" y="80" name="fh03"/>
      <point x="401.0" y="52.0" type="qcurve" smooth="yes" name="inserted"/>
      <point x="373" y="24" name="fh04"/>
      <point x="297" y="-8"/>
      <point x="255" y="-8" type="qcurve" name="ab01"/>
      <point x="213" y="-8"/>
      <point x="141" y="22"/>
      <point x="113" y="49" type="qcurve" name="dh01"/>
      <point x="134" y="68" type="line" name="sh03"/>
      <point x="157" y="45"/>
      <point x="218" y="19"/>
      <point x="253" y="19" type="qcurve" name="sv03"/>
      <point x="290" y="19"/>
      <point x="357" y="48" name="fh05"/>
      <point x="381.5" y="72.5" type="qcurve" smooth="yes" name="inserted"/>
      <point x="406" y="97" name="fh06"/>
      <point x="435" y="162" name="fh07"/>
      <point x="435" y="198" type="qcurve" name="sh04"/>
      <point x="435" y="234"/>
      <point x="406" y="298" name="fv01"/>
      <point x="381.5" y="322.0" type="qcurve" smooth="yes" name="inserted"/>
      <point x="357" y="346" name="fh08"/>
      <point x="290" y="373"/>
      <point x="253" y="373" type="qcurve" name="sv02"/>
      <point x="218" y="373"/>
      <point x="160" y="350" name="fh09"/>
      <point x="143" y="331" type="qcurve" name="ih02"/>
      <point x="143" y="650" type="line" name="at01"/>
    </contour>
  </outline>
</glyph>
<glyph name="six" format="1">
  <advance width="520"/>
  <unicode hex="0036"/>
  <outline>
    <contour>
      <point x="77" y="196" type="qcurve" name="sh01"/>
      <point x="77" y="159"/>
      <point x="105" y="95" name="fh01"/>
      <point x="129.0" y="71.0" type="qcurve" smooth="yes" name="inserted"/>
      <point x="153" y="47" name="fv01"/>
      <point x="218" y="19"/>
      <point x="255" y="19" type="qcurve" name="sv01"/>
      <point x="292" y="19"/>
      <point x="358" y="47" name="fh02"/>
      <point x="382.5" y="71.0" type="qcurve" smooth="yes" name="inserted"/>
      <point x="407" y="95" name="fh03"/>
      <point x="435" y="159"/>
      <point x="435" y="196" type="qcurve" name="sh02"/>
      <point x="435" y="233"/>
      <point x="407" y="297" name="fv02"/>
      <point x="382.5" y="321.0" type="qcurve" smooth="yes" name="inserted"/>
      <point x="358" y="345" name="fh04"/>
      <point x="292" y="373"/>
      <point x="255" y="373" type="qcurve" name="sv03"/>
      <point x="218" y="373"/>
      <point x="153" y="345" name="fh05"/>
      <point x="129.0" y="321.0" type="qcurve" smooth="yes" name="inserted"/>
      <point x="105" y="297" name="fh06"/>
      <point x="77" y="233"/>
    </contour>
    <contour>
      <point x="50" y="194" type="qcurve" name="dh01"/>
      <point x="50" y="266" name="fh07"/>
      <point x="112" y="391"/>
      <point x="160.0" y="445.5" type="qcurve" smooth="yes" name="inserted"/>
      <point x="208" y="500" name="fh08"/>
      <point x="325" y="593"/>
      <point x="381" y="634" type="qcurve" name="sh03"/>
      <point x="386" y="628"/>
      <point x="395" y="616"/>
      <point x="400" y="611" type="qcurve" name="ih01"/>
      <point x="340" y="571" name="mh01"/>
      <point x="247" y="494" name="fv03"/>
      <point x="213.0" y="459.0" type="qcurve" smooth="yes" name="inserted"/>
      <point x="179" y="424" name="fh09"/>
      <point x="134" y="361" name="fh10"/>
      <point x="122" y="336" type="qcurve" name="ih02"/>
      <point x="145" y="365" name="fv04"/>
      <point x="214" y="401" name="fh11"/>
      <point x="256" y="401" type="qcurve" name="sv02"/>
      <point x="299" y="401"/>
      <point x="374" y="369" name="fh12"/>
      <point x="402.0" y="341.0" type="qcurve" smooth="yes" name="inserted"/>
      <point x="430" y="313" name="fh13"/>
      <point x="463" y="238"/>
      <point x="463" y="196" type="qcurve" name="dh02"/>
      <point x="463" y="154"/>
      <point x="430" y="80" name="fh14"/>
      <point x="402.0" y="52.0" type="qcurve" smooth="yes" name="inserted"/>
      <point x="374" y="24" name="fh15"/>
      <point x="299" y="-8"/>
      <point x="256" y="-8" type="qcurve" name="ab01"/>
      <point x="214" y="-8"/>
      <point x="139" y="24" name="fh16"/>
      <point x="111.0" y="51.0" type="qcurve" smooth="yes" name="inserted"/>
      <point x="83" y="78" name="fh17"/>
      <point x="50" y="152"/>
    </contour>
  </outline>
</glyph>
<glyph name="eight" format="1">
  <advance width="510"/>
  <unicode hex="0038"/>
  <outline>
    <contour>
      <point x="134" y="508" type="qcurve" name="sh01"/>
      <point x="134" y="485"/>
      <point x="153" y="446"/>
      <point x="169.0" y="432.0" type="qcurve" smooth="yes" name="inserted"/>
      <point x="185" y="418"/>
      <point x="229" y="402"/>
      <point x="254" y="402" type="qcurve" name="iv01"/>
      <point x="279" y="402"/>
      <point x="322" y="418"/>
      <point x="338.0" y="432.0" type="qcurve" smooth="yes" name="inserted"/>
      <point x="354" y="446"/>
      <point x="372" y="485"/>
      <point x="372" y="508" type="qcurve" name="sh02"/>
      <point x="372" y="533"/>
      <point x="354" y="577" name="fh01"/>
      <point x="338.0" y="594.0" type="qcurve" smooth="yes" name="inserted"/>
      <point x="322" y="611" name="fh02"/>
      <point x="279" y="631"/>
      <point x="254" y="631" type="qcurve" name="sv01"/>
      <point x="229" y="631"/>
      <point x="185" y="611"/>
      <point x="169.0" y="594.0" type="qcurve" smooth="yes" name="inserted"/>
      <point x="153" y="577" name="fh03"/>
      <point x="134" y="533"/>
    </contour>
    <contour>
      <point x="78" y="198" type="qcurve" name="sh03"/>
      <point x="78" y="162"/>
      <point x="105" y="97" name="fh04"/>
      <point x="128.5" y="72.5" type="qcurve" smooth="yes" name="inserted"/>
      <point x="152" y="48" name="fh05"/>
      <point x="216" y="19"/>
      <point x="253" y="19" type="qcurve" name="sv02"/>
      <point x="290" y="19"/>
      <point x="357" y="48" name="fh06"/>
      <point x="381.5" y="72.5" type="qcurve" smooth="yes" name="inserted"/>
      <point x="406" y="97" name="fh07"/>
      <point x="435" y="162"/>
      <point x="435" y="198" type="qcurve" name="sh04"/>
      <point x="435" y="234"/>
      <point x="406" y="298"/>
      <point x="381.5" y="322.0" type="qcurve" smooth="yes" name="inserted"/>
      <point x="357" y="346"/>
      <point x="291" y="373"/>
      <point x="254" y="373" type="qcurve" name="sv03"/>
      <point x="217" y="373"/>
      <point x="153" y="346"/>
      <point x="129.0" y="322.0" type="qcurve" smooth="yes" name="inserted"/>
      <point x="105" y="298" name="fh08"/>
      <point x="78" y="234"/>
    </contour>
    <contour>
      <point x="50" y="198" type="qcurve" name="dh01"/>
      <point x="50" y="232"/>
      <point x="71" y="293" name="fh09"/>
      <point x="89.5" y="318.0" type="qcurve" smooth="yes" name="inserted"/>
      <point x="108" y="343" name="fh10"/>
      <point x="160" y="380" name="fv01"/>
      <point x="191" y="389" type="qcurve" name="ih03"/>
      <point x="153" y="404"/>
      <point x="105" y="471"/>
      <point x="105" y="514" type="qcurve" name="ih01"/>
      <point x="105" y="544"/>
      <point x="128" y="596" name="fh11"/>
      <point x="148.5" y="615.5" type="qcurve" smooth="yes" name="inserted"/>
      <point x="169" y="635" name="fh12"/>
      <point x="222" y="658"/>
      <point x="252" y="658" type="qcurve" name="at01"/>
      <point x="283" y="658"/>
      <point x="336" y="635" name="fh13"/>
      <point x="356.0" y="615.0" type="qcurve" smooth="yes" name="inserted"/>
      <point x="376" y="595" name="fh14"/>
      <point x="399" y="541"/>
      <point x="399" y="511" type="qcurve" name="ih02"/>
      <point x="399" y="469"/>
      <point x="354" y="405" name="fh15"/>
      <point x="317" y="389" type="qcurve" name="ih04"/>
      <point x="348" y="380" name="fh16"/>
      <point x="401" y="344" name="fh17"/>
      <point x="420.5" y="319.0" type="qcurve" smooth="yes" name="inserted"/>
      <point x="440" y="294" name="fh18"/>
      <point x="462" y="232"/>
      <point x="462" y="198" type="qcurve" name="dh02"/>
      <point x="462" y="155"/>
      <point x="429" y="80" name="fh19"/>
      <point x="401.0" y="52.0" type="qcurve" smooth="yes" name="inserted"/>
      <point x="373" y="24" name="fh20"/>
      <point x="297" y="-8"/>
      <point x="255" y="-8" type="qcurve" name="ab01"/>
      <point x="213" y="-8"/>
      <point x="138" y="24" name="fh21"/>
      <point x="110.0" y="52.0" type="qcurve" smooth="yes" name="inserted"/>
      <point x="82" y="80" name="fh22"/>
      <point x="50" y="155"/>
    </contour>
  </outline>
</glyph>
<glyph name="nine" format="1">
  <advance width="525"/>
  <unicode hex="0039"/>
  <outline>
    <contour>
      <point x="435" y="429" type="qcurve" name="sh01"/>
      <point x="435" y="466"/>
      <point x="407" y="530" name="fh01"/>
      <point x="383.0" y="554.0" type="qcurve" smooth="yes" name="inserted"/>
      <point x="359" y="578" name="fh02"/>
      <point x="294" y="606"/>
      <point x="257" y="606" type="qcurve" name="sv01"/>
      <point x="220" y="606"/>
      <point x="154" y="578" name="fh03"/>
      <point x="129.5" y="554.0" type="qcurve" smooth="yes" name="inserted"/>
      <point x="105" y="530" name="fh04"/>
      <point x="77" y="466"/>
      <point x="77" y="429" type="qcurve" name="sh02"/>
      <point x="77" y="392"/>
      <point x="105" y="328" name="fh05"/>
      <point x="129.5" y="304.0" type="qcurve" smooth="yes" name="inserted"/>
      <point x="154" y="280" name="fh06"/>
      <point x="220" y="252"/>
      <point x="257" y="252" type="qcurve" name="sv03"/>
      <point x="294" y="252"/>
      <point x="359" y="280" name="fh07"/>
      <point x="383.0" y="304.0" type="qcurve" smooth="yes" name="inserted"/>
      <point x="407" y="328" name="fh08"/>
      <point x="435" y="392" name="fh09"/>
    </contour>
    <contour>
      <point x="463" y="429" type="qcurve" name="dh02"/>
      <point x="463" y="357" name="fh10"/>
      <point x="401" y="233"/>
      <point x="352.5" y="179.0" type="qcurve" smooth="yes" name="inserted"/>
      <point x="304" y="125" name="mh01"/>
      <point x="186" y="32"/>
      <point x="131" y="-8" type="qcurve" name="mh02"/>
      <point x="126.5" y="-2.5" name="inserted"/>
      <point x="117.5" y="9.0"/>
      <point x="113" y="15" type="qcurve" name="ih01"/>
      <point x="233" y="95" name="mh03"/>
      <point x="366" y="239" name="fh11"/>
      <point x="391" y="290" type="qcurve" name="ih02"/>
      <point x="368" y="260" name="fh12"/>
      <point x="298" y="225"/>
      <point x="256" y="225" type="qcurve" name="sv02"/>
      <point x="213" y="225"/>
      <point x="138" y="257" name="fh13"/>
      <point x="110.0" y="285.0" type="qcurve" smooth="yes" name="inserted"/>
      <point x="82" y="313" name="fh14"/>
      <point x="49" y="387"/>
      <point x="49" y="429" type="qcurve" name="dh01"/>
      <point x="49" y="471"/>
      <point x="82" y="546" name="fh15"/>
      <point x="110.0" y="574.0" type="qcurve" smooth="yes" name="inserted"/>
      <point x="138" y="602" name="fh16"/>
      <point x="213" y="634"/>
      <point x="256" y="634" type="qcurve" name="av01"/>
      <point x="299" y="634"/>
      <point x="374" y="602" name="fh17"/>
      <point x="402.0" y="574.0" type="qcurve" smooth="yes" name="inserted"/>
      <point x="430" y="546" name="fh18"/>
      <point x="463" y="471"/>
    </contour>
  </outline>
</glyph>
<glyph name="colon" format="1">
  <advance width="175"/>
  <unicode hex="003A"/>
  <outline>
    <contour>
      <point x="59" y="276" type="qcurve" name="sh01"/>
      <point x="59" y="287"/>
      <point x="74" y="303"/>
      <point x="85" y="303" type="qcurve" name="av01"/>
      <point x="96" y="303"/>
      <point x="111" y="287"/>
      <point x="111" y="276" type="qcurve" name="sh02"/>
      <point x="111" y="265"/>
      <point x="96" y="250"/>
      <point x="85" y="250" type="qcurve" name="sv01"/>
      <point x="74" y="250"/>
      <point x="59" y="265"/>
    </contour>
    <contour>
      <point x="59" y="26" type="qcurve" name="ah01"/>
      <point x="59" y="37"/>
      <point x="74" y="53"/>
      <point x="85" y="53" type="qcurve" name="sv02"/>
      <point x="96" y="53"/>
      <point x="111" y="37"/>
      <point x="111" y="26" type="qcurve" name="sh03"/>
      <point x="111" y="15"/>
      <point x="96" y="0"/>
      <point x="85" y="0" type="qcurve" name="ab01"/>
      <point x="74" y="0"/>
      <point x="59" y="15"/>
    </contour>
  </outline>
</glyph>
<glyph name="question" format="1">
  <advance width="452"/>
  <unicode hex="003F"/>
  <outline>
    <contour>
      <point x="58" y="587" type="qcurve" name="sh01"/>
      <point x="52" y="589"/>
      <point x="39" y="593"/>
      <point x="33" y="595" type="qcurve" name="dh01"/>
      <point x="42" y="622"/>
      <point x="76" y="672" name="fh01"/>
      <point x="100.0" y="691.0" type="qcurve" smooth="yes" name="inserted"/>
      <point x="124" y="710"/>
      <point x="185" y="732"/>
      <point x="221" y="732" type="qcurve" name="av01"/>
      <point x="262" y="732"/>
      <point x="334" y="701" name="fh02"/>
      <point x="360.5" y="674.5" type="qcurve" smooth="yes" name="inserted"/>
      <point x="387" y="648" name="fh03"/>
      <point x="417" y="577"/>
      <point x="417" y="537" type="qcurve" name="dh02"/>
      <point x="417" y="483"/>
      <point x="364" y="401" name="fh04"/>
      <point x="319" y="369" type="qcurve" name="iv01"/>
      <point x="301" y="355" name="fh05"/>
      <point x="267" y="336"/>
      <point x="254.5" y="323.5" type="qcurve" smooth="yes" name="inserted"/>
      <point x="242" y="311" name="fh06"/>
      <point x="227" y="274"/>
      <point x="227" y="242" type="qcurve"/>
      <point x="227" y="164" type="line" name="sh02"/>
      <point x="199" y="164" type="line" name="ih01"/>
      <point x="199" y="261" type="line"/>
      <point x="199" y="292"/>
      <point x="221" y="330" name="fh07"/>
      <point x="239.5" y="345.0" type="qcurve" smooth="yes" name="inserted"/>
      <point x="258" y="360"/>
      <point x="304" y="387"/>
      <point x="328" y="408" type="qcurve" name="iv02"/>
      <point x="360" y="435" name="fh08"/>
      <point x="389" y="500"/>
      <point x="389" y="537" type="qcurve" name="sh03"/>
      <point x="389" y="573"/>
      <point x="363" y="634" name="fh09"/>
      <point x="340.5" y="656.5" type="qcurve" smooth="yes" name="inserted"/>
      <point x="318" y="679" name="fh10"/>
      <point x="257" y="705"/>
      <point x="221" y="705" type="qcurve" name="sv02"/>
      <point x="162" y="705"/>
      <point x="75" y="641"/>
    </contour>
    <contour>
      <point x="213" y="20" type="qcurve" name="av02"/>
      <point x="203" y="20"/>
      <point x="187" y="35"/>
      <point x="187" y="46" type="qcurve" name="sh04"/>
      <point x="187" y="58"/>
      <point x="203" y="73"/>
      <point x="213" y="73" type="qcurve" name="sv01"/>
      <point x="223" y="73"/>
      <point x="239" y="58"/>
      <point x="239" y="46" type="qcurve" name="sh05"/>
      <point x="239" y="35"/>
      <point x="223" y="20"/>
    </contour>
  </outline>
</glyph>
<glyph name="at" format="1">
  <advance width="990"/>
  <unicode hex="0040"/>
  <outline>
    <contour>
      <point x="322" y="188" type="qcurve" name="sh03"/>
      <point x="322" y="153"/>
      <point x="348" y="92" name="fh01"/>
      <point x="370.5" y="69.5" type="qcurve" smooth="yes" name="inserted"/>
      <point x="393" y="47" name="fh02"/>
      <point x="454" y="21"/>
      <point x="489" y="21" type="qcurve" name="sv01"/>
      <point x="524" y="21"/>
      <point x="586" y="47" name="fh03"/>
      <point x="608.5" y="69.5" type="qcurve" smooth="yes" name="inserted"/>
      <point x="631" y="92" name="fh04"/>
      <point x="657" y="153"/>
      <point x="657" y="188" type="qcurve" name="sh05"/>
      <point x="657" y="223"/>
      <point x="631" y="284" name="fh05"/>
      <point x="608.5" y="307.0" type="qcurve" smooth="yes" name="inserted"/>
      <point x="586" y="330"/>
      <point x="524" y="356"/>
      <point x="489" y="356" type="qcurve" name="sv02"/>
      <point x="454" y="356"/>
      <point x="393" y="330" name="fh06"/>
      <point x="370.5" y="307.0" type="qcurve" smooth="yes" name="inserted"/>
      <point x="348" y="284" name="fh07"/>
      <point x="322" y="223"/>
    </contour>
    <contour>
      <point x="890" y="188" type="qcurve" name="sh01"/>
      <point x="888" y="130"/>
      <point x="860" y="57"/>
      <point x="839.5" y="36.0" type="qcurve" smooth="yes" name="inserted"/>
      <point x="819" y="15" name="fh08"/>
      <point x="768" y="0"/>
      <point x="743" y="0" type="qcurve"/>
      <point x="659" y="0" type="line" name="sh04"/>
      <point x="659" y="47" type="line"/>
      <point x="659" y="61"/>
      <point x="660" y="88"/>
      <point x="660" y="102" type="qcurve" name="iv01"/>
      <point x="651" y="79"/>
      <point x="619" y="40"/>
      <point x="596.5" y="25.5" type="qcurve" smooth="yes" name="inserted"/>
      <point x="574" y="11"/>
      <point x="520" y="-7"/>
      <point x="489" y="-7" type="qcurve" name="ab01"/>
      <point x="448" y="-7"/>
      <point x="377" y="24" name="fh09"/>
      <point x="350.5" y="50.0" type="qcurve" smooth="yes" name="inserted"/>
      <point x="324" y="76" name="fh10"/>
      <point x="294" y="147"/>
      <point x="294" y="188" type="qcurve" name="sh02"/>
      <point x="294" y="228"/>
      <point x="324" y="299" name="fh11"/>
      <point x="350.5" y="325.5" type="qcurve" smooth="yes" name="inserted"/>
      <point x="377" y="352" name="fh12"/>
      <point x="448" y="383"/>
      <point x="489" y="383" type="qcurve" name="at01"/>
      <point x="519" y="383"/>
      <point x="572" y="366"/>
      <point x="594.5" y="351.0" type="qcurve" smooth="yes" name="inserted"/>
      <point x="617" y="336"/>
      <point x="650" y="296"/>
      <point x="659" y="274" type="qcurve" name="iv02"/>
      <point x="659" y="299"/>
      <point x="662" y="349"/>
      <point x="663" y="375" type="qcurve" name="sh06"/>
      <point x="685" y="375" type="line" name="ih01"/>
      <point x="685" y="27" type="line" name="sv03"/>
      <point x="748" y="27" type="line"/>
      <point x="799" y="27" name="fh13"/>
      <point x="860" y="103" name="fv01"/>
      <point x="862" y="188" type="qcurve" name="sh07"/>
      <point x="862" y="266"/>
      <point x="803" y="402" name="fh14"/>
      <point x="752.5" y="453.0" type="qcurve" smooth="yes" name="inserted"/>
      <point x="702" y="504" name="fh15"/>
      <point x="566" y="563"/>
      <point x="489" y="563" type="qcurve" name="sv05"/>
      <point x="412" y="563"/>
      <point x="276" y="504" name="fh16"/>
      <point x="225.5" y="453.0" type="qcurve" smooth="yes" name="inserted"/>
      <point x="175" y="402" name="fh17"/>
      <point x="116" y="266"/>
      <point x="116" y="188" type="qcurve" name="sh08"/>
      <point x="116" y="111"/>
      <point x="175" y="-25" name="fh18"/>
      <point x="225.5" y="-75.5" type="qcurve" smooth="yes" name="inserted"/>
      <point x="276" y="-126" name="fh19"/>
      <point x="412" y="-185" name="fh20"/>
      <point x="489" y="-185" type="qcurve" name="sv07"/>
      <point x="550" y="-185"/>
      <point x="660" y="-147"/>
      <point x="706" y="-115" type="qcurve" name="sv08"/>
      <point x="711" y="-121"/>
      <point x="718" y="-131"/>
      <point x="723" y="-136" type="qcurve" name="ih02"/>
      <point x="673" y="-172"/>
      <point x="555" y="-212"/>
      <point x="489" y="-212" type="qcurve" name="sv06"/>
      <point x="406" y="-212" name="fh21"/>
      <point x="260" y="-149"/>
      <point x="205.5" y="-94.5" type="qcurve" smooth="yes" name="inserted"/>
      <point x="151" y="-40" name="fh22"/>
      <point x="88" y="106"/>
      <point x="88" y="189" type="qcurve" name="ah01"/>
      <point x="88" y="272"/>
      <point x="151" y="418" name="fh23"/>
      <point x="205.5" y="472.5" type="qcurve" smooth="yes" name="inserted"/>
      <point x="260" y="527"/>
      <point x="406" y="590"/>
      <point x="489" y="590" type="qcurve" name="sv04"/>
      <point x="572" y="590"/>
      <point x="718" y="527" name="fh24"/>
      <point x="772.5" y="472.5" type="qcurve" smooth="yes" name="inserted"/>
      <point x="827" y="418" name="fv02"/>
      <point x="890" y="272"/>
    </contour>
  </outline>
</glyph>
<glyph name="A" format="1">
  <advance width="820"/>
  <unicode hex="0041"/>
  <outline>
    <contour>
      <point x="35" y="27" type="line" name="sh02"/>
      <point x="111" y="27" type="line" name="sh01"/>
      <point x="186" y="204" name="fh01"/>
      <point x="335" y="554"/>
      <point x="410" y="732" type="qcurve" name="ah01"/>
      <point x="485" y="554" name="fh02"/>
      <point x="634" y="204" name="fh03"/>
      <point x="709" y="27" type="qcurve" name="sh03"/>
      <point x="785" y="27" type="line" name="sh04"/>
      <point x="785" y="0" type="line"/>
      <point x="601" y="0" type="line" name="sv01"/>
      <point x="601" y="27" type="line" name="sh06"/>
      <point x="680" y="27" type="line" name="sh05"/>
      <point x="650" y="97" name="fh04"/>
      <point x="591" y="237" name="fh05"/>
      <point x="561" y="308" type="qcurve" name="ih01"/>
      <point x="259" y="308" type="line" name="ih02"/>
      <point x="229" y="237" name="fh06"/>
      <point x="170" y="97" name="fh07"/>
      <point x="140" y="27" type="qcurve" name="sh08"/>
      <point x="219" y="27" type="line" name="sh09"/>
      <point x="219" y="0" type="line" name="ab01"/>
      <point x="35" y="0" type="line"/>
    </contour>
    <contour>
      <point x="419" y="643" type="line"/>
      <point x="410" y="670" type="line" name="sh07"/>
      <point x="409" y="668"/>
      <point x="407" y="660" name="fh08"/>
      <point x="405" y="655" type="qcurve" name="fh09"/>
      <point x="401" y="643" type="line"/>
      <point x="374" y="573"/>
      <point x="304" y="413"/>
      <point x="271" y="335" type="qcurve" name="ih03"/>
      <point x="549" y="335" type="line" name="ih04"/>
    </contour>
  </outline>
</glyph>
<glyph name="B" format="1">
  <advance width="521"/>
  <unicode hex="0042"/>
  <outline>
    <contour>
      <point x="35" y="27" type="line" name="sh01"/>
      <point x="101" y="27" type="line" name="dh01"/>
      <point x="101" y="673" type="line"/>
      <point x="35" y="673" type="line" name="sh02"/>
      <point x="35" y="700" type="line" name="at01"/>
      <point x="253" y="700" type="line"/>
      <point x="299" y="700"/>
      <point x="375" y="680" name="fh01"/>
      <point x="402.5" y="659.0" type="qcurve" smooth="yes" name="inserted"/>
      <point x="430" y="638" name="fh02"/>
      <point x="460" y="571" name="fh03"/>
      <point x="460" y="525" type="qcurve" name="sh03"/>
      <point x="460" y="463"/>
      <point x="398" y="369" name="fh04"/>
      <point x="334" y="352" type="qcurve" name="ih01"/>
      <point x="364" y="346"/>
      <point x="419" y="318" name="fh05"/>
      <point x="440.0" y="296.0" type="qcurve" smooth="yes" name="inserted"/>
      <point x="461" y="274"/>
      <point x="486" y="216"/>
      <point x="486" y="180" type="qcurve" name="dh02"/>
      <point x="486" y="135"/>
      <point x="450" y="68" name="fh06"/>
      <point x="420.0" y="45.5" type="qcurve" smooth="yes" name="inserted"/>
      <point x="390" y="23" name="fh07"/>
      <point x="313" y="0"/>
      <point x="271" y="0" type="qcurve"/>
      <point x="35" y="0" type="line" name="ab01"/>
    </contour>
    <contour>
      <point x="129" y="338" type="line" name="sv01"/>
      <point x="129" y="27" type="line" name="sh04"/>
      <point x="269" y="27" type="line"/>
      <point x="308" y="27"/>
      <point x="376" y="46" name="fh08"/>
      <point x="402.0" y="65.0" type="qcurve" smooth="yes" name="inserted"/>
      <point x="428" y="84" name="fv01"/>
      <point x="458" y="142"/>
      <point x="458" y="180" type="qcurve" name="sh05"/>
      <point x="458" y="221"/>
      <point x="423" y="281" name="fh09"/>
      <point x="394.0" y="300.5" type="qcurve" smooth="yes" name="inserted"/>
      <point x="365" y="320"/>
      <point x="291" y="338"/>
      <point x="251" y="338" type="qcurve"/>
    </contour>
    <contour>
      <point x="129" y="673" type="line" name="sv02"/>
      <point x="129" y="365" type="line" name="sh06"/>
      <point x="268" y="365" type="line"/>
      <point x="305" y="365"/>
      <point x="366" y="388"/>
      <point x="387.5" y="409.0" type="qcurve" smooth="yes" name="inserted"/>
      <point x="409" y="430" name="fh10"/>
      <point x="432" y="489"/>
      <point x="432" y="525" type="qcurve" name="sh07"/>
      <point x="432" y="565"/>
      <point x="407" y="621"/>
      <point x="385.0" y="639.0" type="qcurve" smooth="yes" name="inserted"/>
      <point x="363" y="657"/>
      <point x="301" y="673"/>
      <point x="264" y="673" type="qcurve"/>
    </contour>
  </outline>
</glyph>
<glyph name="F" format="1">
  <advance width="557"/>
  <unicode hex="0046"/>
  <outline>
    <contour>
      <point x="35" y="27" type="line" name="sh02"/>
      <point x="112" y="27" type="line" name="sv01"/>
      <point x="112" y="673" type="line" name="dh01"/>
      <point x="35" y="673" type="line" name="sh01"/>
      <point x="35" y="700" type="line" name="at01"/>
      <point x="522" y="700" type="line" name="dh02"/>
      <point x="522" y="546" type="line"/>
      <point x="495" y="546" type="line" name="sv02"/>
      <point x="495" y="673" type="line" name="sh03"/>
      <point x="140" y="673" type="line" name="sh04"/>
      <point x="140" y="366" type="line" name="iv01"/>
      <point x="483" y="366" type="line" name="ih01"/>
      <point x="483" y="339" type="line"/>
      <point x="140" y="339" type="line" name="sh05"/>
      <point x="140" y="27" type="line"/>
      <point x="223" y="27" type="line" name="sh06"/>
      <point x="223" y="0" type="line" name="ab01"/>
      <point x="35" y="0" type="line"/>
    </contour>
  </outline>
</glyph>
<glyph name="G" format="1">
  <advance width="609"/>
  <unicode hex="0047"/>
  <outline>
    <contour>
      <point x="574" y="298" type="line" name="dh02"/>
      <point x="574" y="40" type="line"/>
      <point x="534" y="17"/>
      <point x="443" y="-10"/>
      <point x="392" y="-10" type="qcurve" name="ab01"/>
      <point x="318" y="-10"/>
      <point x="188" y="46" name="fh01"/>
      <point x="139.5" y="94.5" type="qcurve" smooth="yes" name="inserted"/>
      <point x="91" y="143" name="fh02"/>
      <point x="35" y="273"/>
      <point x="35" y="347" type="qcurve" name="dh01"/>
      <point x="35" y="421"/>
      <point x="91" y="552" name="fh03"/>
      <point x="139.5" y="600.5" type="qcurve" smooth="yes" name="inserted"/>
      <point x="188" y="649" name="fh04"/>
      <point x="318" y="706"/>
      <point x="392" y="706" type="qcurve" name="at01"/>
      <point x="443" y="706"/>
      <point x="534" y="680"/>
      <point x="575" y="656" type="qcurve" name="sh01"/>
      <point x="559" y="633" type="line" name="sv01"/>
      <point x="521.5" y="656.0" name="inserted"/>
      <point x="438.0" y="679.0"/>
      <point x="392" y="679" type="qcurve" name="sv02"/>
      <point x="324" y="679" name="fv01"/>
      <point x="204" y="626" name="fh05"/>
      <point x="159.5" y="581.0" type="qcurve" smooth="yes" name="inserted"/>
      <point x="115" y="536" name="fh06"/>
      <point x="63" y="415" name="fh07"/>
      <point x="63" y="346" type="qcurve" name="sh02"/>
      <point x="63" y="278" name="fv02"/>
      <point x="115" y="158" name="fh08"/>
      <point x="159.0" y="113.5" type="qcurve" smooth="yes" name="inserted"/>
      <point x="203" y="69" name="fh09"/>
      <point x="322" y="17"/>
      <point x="390" y="17" type="qcurve" name="sv03"/>
      <point x="432.0" y="17.0" name="inserted"/>
      <point x="510.0" y="37.0"/>
      <point x="546" y="57" type="qcurve" name="fh10"/>
      <point x="546" y="271" type="line" name="sh03"/>
      <point x="388" y="271" type="line" name="dv01"/>
      <point x="388" y="298" type="line" name="sh04"/>
    </contour>
  </outline>
</glyph>
<glyph name="H" format="1">
  <advance width="727"/>
  <unicode hex="0048"/>
  <outline>
    <contour>
      <point x="505" y="700" type="line" name="sv01"/>
      <point x="692" y="700" type="line"/>
      <point x="692" y="673" type="line" name="sh02"/>
      <point x="615" y="673" type="line"/>
      <point x="615" y="27" type="line" name="dh02"/>
      <point x="692" y="27" type="line" name="sh01"/>
      <point x="692" y="0" type="line"/>
      <point x="505" y="0" type="line" name="sv02"/>
      <point x="505" y="27" type="line" name="sh04"/>
      <point x="587" y="27" type="line" name="sh03"/>
      <point x="587" y="339" type="line"/>
      <point x="140" y="339" type="line" name="sv03"/>
      <point x="140" y="27" type="line" name="sh05"/>
      <point x="223" y="27" type="line" name="sh06"/>
      <point x="223" y="0" type="line"/>
      <point x="35" y="0" type="line" name="ab01"/>
      <point x="35" y="27" type="line" name="sh07"/>
      <point x="112" y="27" type="line" name="dh01"/>
      <point x="112" y="673" type="line"/>
      <point x="35" y="673" type="line" name="sh08"/>
      <point x="35" y="700" type="line" name="at01"/>
      <point x="223" y="700" type="line"/>
      <point x="223" y="673" type="line" name="sh09"/>
      <point x="140" y="673" type="line"/>
      <point x="140" y="366" type="line" name="sh10"/>
      <point x="587" y="366" type="line" name="sh11"/>
      <point x="587" y="673" type="line"/>
      <point x="505" y="673" type="line" name="sh12"/>
    </contour>
  </outline>
</glyph>
<glyph name="J" format="1">
  <advance width="266"/>
  <unicode hex="004A"/>
  <outline>
    <contour>
      <point x="35" y="700" type="line" name="at01"/>
      <point x="231" y="700" type="line"/>
      <point x="231" y="90" type="line" name="dh02"/>
      <point x="231" y="34"/>
      <point x="200" y="-51" name="fh01"/>
      <point x="173.5" y="-80.0" type="qcurve" smooth="yes" name="inserted"/>
      <point x="147" y="-109" name="fh02"/>
      <point x="75" y="-141"/>
      <point x="35" y="-142" type="qcurve" name="av01"/>
      <point x="35" y="-115" type="line" name="dh01"/>
      <point x="71" y="-113"/>
      <point x="133" y="-84" name="fh03"/>
      <point x="155.5" y="-57.5" type="qcurve" smooth="yes" name="inserted"/>
      <point x="178" y="-31" name="fh04"/>
      <point x="203" y="45"/>
      <point x="203" y="93" type="qcurve" name="sh01"/>
      <point x="203" y="673" type="line"/>
      <point x="35" y="673" type="line" name="sh02"/>
    </contour>
  </outline>
</glyph>
<glyph name="L" format="1">
  <advance width="567"/>
  <unicode hex="004C"/>
  <outline>
    <contour>
      <point x="35" y="27" type="line" name="sh01"/>
      <point x="108" y="27" type="line" name="dh01"/>
      <point x="108" y="673" type="line"/>
      <point x="35" y="673" type="line" name="sh02"/>
      <point x="35" y="700" type="line" name="at01"/>
      <point x="219" y="700" type="line"/>
      <point x="219" y="673" type="line" name="sh04"/>
      <point x="136" y="673" type="line" name="sv01"/>
      <point x="136" y="27" type="line" name="sh03"/>
      <point x="505" y="27" type="line"/>
      <point x="505" y="154" type="line" name="sh05"/>
      <point x="532" y="154" type="line" name="dh02"/>
      <point x="532" y="0" type="line"/>
      <point x="35" y="0" type="line" name="ab01"/>
    </contour>
  </outline>
</glyph>
<glyph name="N" format="1">
  <advance width="843"/>
  <unicode hex="004E"/>
  <outline>
    <contour>
      <point x="35" y="27" type="line" name="sh01"/>
      <point x="114" y="27" type="line" name="dh01"/>
      <point x="114" y="673" type="line"/>
      <point x="35" y="673" type="line" name="sh02"/>
      <point x="35" y="700" type="line" name="at01"/>
      <point x="141" y="700" type="line" name="ih01"/>
      <point x="681" y="58" type="line" name="mv01"/>
      <point x="700" y="32" type="line" name="sv02"/>
      <point x="697" y="64" type="line"/>
      <point x="697" y="673" type="line" name="sh04"/>
      <point x="620" y="673" type="line" name="sh05"/>
      <point x="620" y="700" type="line" name="at02"/>
      <point x="808" y="700" type="line"/>
      <point x="808" y="673" type="line" name="sh06"/>
      <point x="725" y="673" type="line" name="dh02"/>
      <point x="725" y="-32" type="line" name="sv01"/>
      <point x="158" y="638" type="line" name="mv02"/>
      <point x="140" y="660" type="line" name="sv03"/>
      <point x="142" y="632" type="line"/>
      <point x="142" y="27" type="line" name="sh03"/>
      <point x="223" y="27" type="line" name="sh07"/>
      <point x="223" y="0" type="line"/>
      <point x="35" y="0" type="line" name="ab01"/>
    </contour>
  </outline>
</glyph>
<glyph name="O" format="1">
  <advance width="786"/>
  <unicode hex="004F"/>
  <outline>
    <contour>
      <point x="35" y="349" type="qcurve" name="dh01"/>
      <point x="35" y="423"/>
      <point x="91" y="554" name="fh01"/>
      <point x="139.5" y="602.5" type="qcurve" smooth="yes" name="inserted"/>
      <point x="188" y="651" name="fv01"/>
      <point x="318" y="708"/>
      <point x="392" y="708" type="qcurve" name="at01"/>
      <point x="466" y="708"/>
      <point x="597" y="651" name="fh02"/>
      <point x="645.5" y="602.5" type="qcurve" smooth="yes" name="inserted"/>
      <point x="694" y="554" name="fh03"/>
      <point x="751" y="423"/>
      <point x="751" y="349" type="qcurve" name="dh02"/>
      <point x="751" y="275"/>
      <point x="694" y="145" name="fh04"/>
      <point x="645.5" y="96.5" type="qcurve" smooth="yes" name="inserted"/>
      <point x="597" y="48" name="fh05"/>
      <point x="466" y="-8"/>
      <point x="392" y="-8" type="qcurve" name="ab01"/>
      <point x="318" y="-8"/>
      <point x="188" y="48" name="fh06"/>
      <point x="139.5" y="96.5" type="qcurve" smooth="yes" name="inserted"/>
      <point x="91" y="145" name="fh07"/>
      <point x="35" y="275"/>
    </contour>
    <contour>
      <point x="63" y="348" type="qcurve" name="sh01"/>
      <point x="63" y="280"/>
      <point x="115" y="160" name="fh08"/>
      <point x="159.0" y="115.5" type="qcurve" smooth="yes" name="inserted"/>
      <point x="203" y="71" name="fh09"/>
      <point x="322" y="19"/>
      <point x="390" y="19" type="qcurve" name="sv01"/>
      <point x="458" y="19"/>
      <point x="579" y="71" name="fh10"/>
      <point x="624.5" y="116.0" type="qcurve" smooth="yes" name="inserted"/>
      <point x="670" y="161" name="fh11"/>
      <point x="723" y="281" name="fh12"/>
      <point x="723" y="349" type="qcurve" name="sh02"/>
      <point x="723" y="417"/>
      <point x="671" y="538" name="fh13"/>
      <point x="626.0" y="583.0" type="qcurve" smooth="yes" name="inserted"/>
      <point x="581" y="628" name="fh14"/>
      <point x="460" y="681"/>
      <point x="392" y="681" type="qcurve" name="sv02"/>
      <point x="324" y="681"/>
      <point x="204" y="628" name="fh15"/>
      <point x="159.5" y="583.0" type="qcurve" smooth="yes" name="inserted"/>
      <point x="115" y="538" name="fh16"/>
      <point x="63" y="417"/>
    </contour>
  </outline>
</glyph>
<glyph name="P" format="1">
  <advance width="488"/>
  <unicode hex="0050"/>
  <outline>
    <contour>
      <point x="35" y="27" type="line" name="sh01"/>
      <point x="101" y="27" type="line" name="dh01"/>
      <point x="101" y="673" type="line"/>
      <point x="35" y="673" type="line" name="sh02"/>
      <point x="35" y="700" type="line" name="at01"/>
      <point x="246" y="700" type="line"/>
      <point x="276" y="700"/>
      <point x="348" y="680" name="fh01"/>
      <point x="379.5" y="658.5" type="qcurve" smooth="yes" name="inserted"/>
      <point x="411" y="637" name="fh02"/>
      <point x="453" y="568"/>
      <point x="453" y="520" type="qcurve" name="dh02"/>
      <point x="453" y="435" name="fh03"/>
      <point x="343" y="335" name="fh04"/>
      <point x="240" y="335" type="qcurve"/>
      <point x="129" y="335" type="line" name="iv01"/>
      <point x="129" y="27" type="line" name="sh03"/>
      <point x="223" y="27" type="line" name="sh04"/>
      <point x="223" y="0" type="line"/>
      <point x="35" y="0" type="line" name="ab01"/>
    </contour>
    <contour>
      <point x="129" y="362" type="line" name="sh05"/>
      <point x="238" y="362" type="line"/>
      <point x="293" y="362"/>
      <point x="365" y="392" name="fh05"/>
      <point x="386.5" y="415.5" type="qcurve" smooth="yes" name="inserted"/>
      <point x="408" y="439" name="fh06"/>
      <point x="425" y="494"/>
      <point x="425" y="520" type="qcurve" name="sh06"/>
      <point x="425" y="550"/>
      <point x="397" y="606" name="fh07"/>
      <point x="372.0" y="627.0" type="qcurve" smooth="yes" name="inserted"/>
      <point x="347" y="648" name="fh08"/>
      <point x="279" y="673"/>
      <point x="239" y="673" type="qcurve"/>
      <point x="129" y="673" type="line" name="sv01"/>
    </contour>
  </outline>
</glyph>
<glyph name="S" format="1">
  <advance width="478"/>
  <unicode hex="0053"/>
  <outline>
    <contour>
      <point x="41" y="70" type="qcurve"/>
      <point x="41" y="173" type="line" name="dh01"/>
      <point x="68" y="173" type="line" name="sh01"/>
      <point x="68" y="83" type="line"/>
      <point x="96" y="56" name="fh01"/>
      <point x="179" y="19"/>
      <point x="237" y="19" type="qcurve" name="sv01"/>
      <point x="273" y="19"/>
      <point x="341" y="42" name="fh02"/>
      <point x="367.0" y="63.0" type="qcurve" smooth="yes" name="inserted"/>
      <point x="393" y="84" name="fh03"/>
      <point x="424" y="145"/>
      <point x="424" y="183" type="qcurve" name="sh02"/>
      <point x="424" y="228"/>
      <point x="394" y="287" name="fv01"/>
      <point x="369.0" y="305.5" type="qcurve" smooth="yes" name="inserted"/>
      <point x="344" y="324"/>
      <point x="281" y="347" name="iv01"/>
      <point x="247.5" y="356.5" type="qcurve" smooth="yes" name="inserted"/>
      <point x="214" y="366"/>
      <point x="150" y="387" name="iv02"/>
      <point x="124.0" y="404.0" type="qcurve" smooth="yes" name="inserted"/>
      <point x="98" y="421" name="fh04"/>
      <point x="65" y="475"/>
      <point x="63" y="517" type="qcurve" name="ih01"/>
      <point x="61" y="550"/>
      <point x="80" y="617" name="fh05"/>
      <point x="101.5" y="644.0" type="qcurve" smooth="yes" name="inserted"/>
      <point x="123" y="671" name="fh06"/>
      <point x="191" y="704"/>
      <point x="239" y="704" type="qcurve" name="at01"/>
      <point x="256" y="704"/>
      <point x="295" y="700"/>
      <point x="315.5" y="695.0" type="qcurve" smooth="yes" name="inserted"/>
      <point x="336" y="690"/>
      <point x="376" y="672"/>
      <point x="394" y="657" type="qcurve"/>
      <point x="394" y="546" type="line" name="ih02"/>
      <point x="367" y="546" type="line" name="sh03"/>
      <point x="367" y="643" type="line"/>
      <point x="347" y="657" name="fv02"/>
      <point x="283" y="677"/>
      <point x="238" y="677" type="qcurve" name="sv02"/>
      <point x="201" y="677"/>
      <point x="145" y="652"/>
      <point x="126.5" y="631.0" type="qcurve" smooth="yes" name="inserted"/>
      <point x="108" y="610" name="fh07"/>
      <point x="90" y="556"/>
      <point x="90" y="527" type="qcurve" name="sh04"/>
      <point x="90" y="489"/>
      <point x="121" y="440" name="fh08"/>
      <point x="146.0" y="424.5" type="qcurve" smooth="yes" name="inserted"/>
      <point x="171" y="409" name="iv03"/>
      <point x="235" y="389" name="iv04"/>
      <point x="269.0" y="379.0" type="qcurve" smooth="yes" name="inserted"/>
      <point x="303" y="369" name="fh09"/>
      <point x="368" y="343" name="fh10"/>
      <point x="393.5" y="322.0" type="qcurve" smooth="yes" name="inserted"/>
      <point x="419" y="301" name="fh11"/>
      <point x="451" y="235"/>
      <point x="452" y="186" type="qcurve" name="dh02"/>
      <point x="453" y="142"/>
      <point x="420" y="70" name="fh12"/>
      <point x="391.0" y="44.5" type="qcurve" smooth="yes" name="inserted"/>
      <point x="362" y="19" name="fh13"/>
      <point x="284" y="-8"/>
      <point x="241" y="-8" type="qcurve" name="ab01"/>
      <point x="201" y="-8"/>
      <point x="136" y="8"/>
      <point x="111.0" y="20.0" type="qcurve" smooth="yes" name="inserted"/>
      <point x="86" y="32"/>
      <point x="51" y="59"/>
    </contour>
  </outline>
</glyph>
<glyph name="T" format="1">
  <advance width="623"/>
  <unicode hex="0054"/>
  <outline>
    <contour>
      <point x="217" y="27" type="line" name="sh01"/>
      <point x="297" y="27" type="line"/>
      <point x="297" y="673" type="line" name="dh01"/>
      <point x="62" y="673" type="line" name="sh03"/>
      <point x="62" y="546" type="line"/>
      <point x="35" y="546" type="line" name="sv01"/>
      <point x="35" y="700" type="line" name="sh02"/>
      <point x="588" y="700" type="line" name="sh04"/>
      <point x="588" y="546" type="line"/>
      <point x="561" y="546" type="line" name="sv02"/>
      <point x="561" y="673" type="line" name="sh05"/>
      <point x="325" y="673" type="line" name="dh02"/>
      <point x="325" y="27" type="line" name="sv03"/>
      <point x="405" y="27" type="line" name="sh06"/>
      <point x="405" y="0" type="line"/>
      <point x="217" y="0" type="line" name="ab01"/>
    </contour>
  </outline>
</glyph>
<glyph name="U" format="1">
  <advance width="685"/>
  <unicode hex="0055"/>
  <outline>
    <contour>
      <point x="35" y="700" type="line"/>
      <point x="223" y="700" type="line" name="at01"/>
      <point x="223" y="673" type="line" name="sh02"/>
      <point x="140" y="673" type="line"/>
      <point x="140" y="229" type="line" name="sh01"/>
      <point x="140" y="178" name="fh01"/>
      <point x="170" y="100" name="fh02"/>
      <point x="197.0" y="73.5" type="qcurve" smooth="yes" name="inserted"/>
      <point x="224" y="47" name="fh03"/>
      <point x="298" y="19"/>
      <point x="342" y="19" type="qcurve" name="sv01"/>
      <point x="386" y="19"/>
      <point x="460" y="47" name="fh04"/>
      <point x="487.0" y="73.5" type="qcurve" smooth="yes" name="inserted"/>
      <point x="514" y="100" name="fh05"/>
      <point x="545" y="178"/>
      <point x="545" y="229" type="qcurve" name="sh03"/>
      <point x="545" y="673" type="line"/>
      <point x="462" y="673" type="line" name="sh04"/>
      <point x="462" y="700" type="line" name="at02"/>
      <point x="650" y="700" type="line"/>
      <point x="650" y="673" type="line" name="sh05"/>
      <point x="573" y="673" type="line" name="sv02"/>
      <point x="573" y="226" type="line" name="dh02"/>
      <point x="573" y="169"/>
      <point x="538" y="81" name="fh06"/>
      <point x="507.0" y="51.5" type="qcurve" smooth="yes" name="inserted"/>
      <point x="476" y="22" name="fh07"/>
      <point x="391" y="-8"/>
      <point x="342" y="-8" type="qcurve" name="ab01"/>
      <point x="292" y="-8"/>
      <point x="208" y="22" name="fh08"/>
      <point x="177.5" y="51.5" type="qcurve" smooth="yes" name="inserted"/>
      <point x="147" y="81" name="fh09"/>
      <point x="112" y="169"/>
      <point x="112" y="226" type="qcurve" name="dh01"/>
      <point x="112" y="673" type="line" name="sv03"/>
      <point x="35" y="673" type="line" name="sh06"/>
    </contour>
  </outline>
</glyph>
<glyph name="W" format="1">
  <advance width="1212"/>
  <unicode hex="0057"/>
  <outline>
    <contour>
      <point x="35" y="700" type="line" name="at01"/>
      <point x="223" y="700" type="line"/>
      <point x="223" y="673" type="line" name="sh03"/>
      <point x="147" y="673" type="line" name="sh02"/>
      <point x="212" y="518"/>
      <point x="341" y="211" name="fh01"/>
      <point x="408" y="57" type="qcurve" name="fh02"/>
      <point x="417" y="30" type="line" name="sh04"/>
      <point x="454" y="135"/>
      <point x="546" y="338"/>
      <point x="589" y="441" type="qcurve" name="ih01"/>
      <point x="565" y="499"/>
      <point x="516" y="614"/>
      <point x="491" y="673" type="qcurve" name="sh06"/>
      <point x="409" y="673" type="line" name="sh07"/>
      <point x="409" y="700" type="line" name="at02"/>
      <point x="597" y="700" type="line"/>
      <point x="597" y="673" type="line" name="sh09"/>
      <point x="520" y="673" type="line" name="sh08"/>
      <point x="585" y="518" name="fh03"/>
      <point x="713" y="211" name="fh04"/>
      <point x="781" y="57" type="qcurve" name="fh05"/>
      <point x="790" y="30" type="line" name="sh10"/>
      <point x="799" y="57" type="line"/>
      <point x="864" y="212"/>
      <point x="994" y="518"/>
      <point x="1059" y="673" type="qcurve" name="sh12"/>
      <point x="989" y="673" type="line" name="sh13"/>
      <point x="989" y="700" type="line" name="at03"/>
      <point x="1177" y="700" type="line"/>
      <point x="1177" y="673" type="line" name="sh14"/>
      <point x="1088" y="673" type="line" name="sh11"/>
      <point x="1013" y="495"/>
      <point x="865" y="145"/>
      <point x="790" y="-32" type="qcurve" name="sh05"/>
      <point x="613" y="385" type="line" name="ih02"/>
      <point x="603" y="410" type="line" name="ih03"/>
      <point x="560" y="299" name="fh06"/>
      <point x="464" y="78" name="fh07"/>
      <point x="417" y="-32" type="qcurve" name="ah01"/>
      <point x="342" y="145"/>
      <point x="193" y="495"/>
      <point x="118" y="673" type="qcurve" name="sh01"/>
      <point x="35" y="673" type="line" name="sh15"/>
    </contour>
  </outline>
</glyph>
<glyph name="Y" format="1">
  <advance width="732"/>
  <unicode hex="0059"/>
  <outline>
    <contour>
      <point x="274" y="27" type="line" name="sh01"/>
      <point x="350" y="27" type="line"/>
      <point x="350" y="264" type="line" name="dh01"/>
      <point x="288" y="367"/>
      <point x="167" y="570"/>
      <point x="105" y="673" type="qcurve" name="sh02"/>
      <point x="35" y="673" type="line" name="sh03"/>
      <point x="35" y="700" type="line"/>
      <point x="223" y="700" type="line" name="at01"/>
      <point x="223" y="673" type="line" name="sh05"/>
      <point x="139" y="673" type="line" name="sh04"/>
      <point x="193" y="582" name="fh01"/>
      <point x="301" y="405"/>
      <point x="354" y="314" type="qcurve"/>
      <point x="366" y="287" type="line" name="ih01"/>
      <point x="367" y="287" type="line"/>
      <point x="378" y="314" type="line"/>
      <point x="592" y="673" type="line" name="sh06"/>
      <point x="510" y="673" type="line" name="sh07"/>
      <point x="510" y="700" type="line" name="at02"/>
      <point x="697" y="700" type="line"/>
      <point x="697" y="673" type="line" name="sh09"/>
      <point x="626" y="673" type="line" name="sh08"/>
      <point x="565" y="570"/>
      <point x="443" y="366"/>
      <point x="382" y="263" type="qcurve" name="dh02"/>
      <point x="382" y="27" type="line" name="sv01"/>
      <point x="461" y="27" type="line" name="sh10"/>
      <point x="461" y="0" type="line"/>
      <point x="274" y="0" type="line" name="ab01"/>
    </contour>
  </outline>
</glyph>
<glyph name="Z" format="1">
  <advance width="629"/>
  <unicode hex="005A"/>
  <outline>
    <contour>
      <point x="594" y="188" type="line" name="dh02"/>
      <point x="594" y="0" type="line" name="ab01"/>
      <point x="35" y="0" type="line"/>
      <point x="35" y="27" type="line" name="sh01"/>
      <point x="529" y="673" type="line" name="sh02"/>
      <point x="52" y="673" type="line" name="sv02"/>
      <point x="52" y="735" type="line" name="dh01"/>
      <point x="81" y="735" type="line" name="sh03"/>
      <point x="81" y="700" type="line" name="at01"/>
      <point x="565" y="700" type="line"/>
      <point x="565" y="673" type="line" name="ih01"/>
      <point x="71" y="27" type="line" name="sh04"/>
      <point x="567" y="27" type="line" name="sv01"/>
      <point x="567" y="188" type="line" name="sh05"/>
    </contour>
  </outline>
</glyph>
<glyph name="bracketleft" format="1">
  <advance width="338"/>
  <unicode hex="005B"/>
  <outline>
    <contour>
      <point x="83" y="-149" type="line" name="ah01"/>
      <point x="83" y="746" type="line"/>
      <point x="252" y="746" type="line" name="at01"/>
      <point x="252" y="719" type="line" name="sh02"/>
      <point x="112" y="719" type="line"/>
      <point x="112" y="-122" type="line" name="sh03"/>
      <point x="252" y="-122" type="line" name="sv01"/>
      <point x="252" y="-149" type="line" name="sh01"/>
    </contour>
  </outline>
</glyph>
<glyph name="bracketright" format="1">
  <advance width="342"/>
  <unicode hex="005D"/>
  <outline>
    <contour>
      <point x="251" y="746" type="line"/>
      <point x="251" y="-149" type="line" name="ah01"/>
      <point x="82" y="-149" type="line" name="sh01"/>
      <point x="82" y="-122" type="line" name="sv01"/>
      <point x="222" y="-122" type="line" name="sh02"/>
      <point x="222" y="719" type="line"/>
      <point x="82" y="719" type="line" name="sh03"/>
      <point x="82" y="746" type="line" name="at01"/>
    </contour>
  </outline>
</glyph>
<glyph name="underscore" format="1">
  <advance width="600"/>
  <unicode hex="005F"/>
  <outline>
    <contour>
      <point x="500" y="0" type="line" name="sh01"/>
      <point x="100" y="0" type="line" name="ah01"/>
      <point x="100" y="27" type="line" name="sv01"/>
      <point x="500" y="27" type="line"/>
    </contour>
  </outline>
</glyph>
<glyph name="b" format="1">
  <advance width="535"/>
  <unicode hex="0062"/>
  <outline>
    <contour>
      <point x="35" y="27" type="line" name="sh01"/>
      <point x="109" y="27" type="line" name="dh01"/>
      <point x="109" y="723" type="line" name="sv01"/>
      <point x="37" y="723" type="line" name="sh02"/>
      <point x="37" y="750" type="line"/>
      <point x="136" y="750" type="line" name="at01"/>
      <point x="136" y="329" type="line" name="sh03"/>
      <point x="136" y="315"/>
      <point x="135" y="288"/>
      <point x="134" y="274" type="qcurve" name="iv01"/>
      <point x="143" y="296"/>
      <point x="176" y="336"/>
      <point x="198.0" y="351.0" type="qcurve" smooth="yes" name="inserted"/>
      <point x="220" y="366"/>
      <point x="275" y="383"/>
      <point x="305" y="383" type="qcurve" name="at02"/>
      <point x="346" y="383"/>
      <point x="417" y="352" name="fh01"/>
      <point x="443.5" y="326.0" type="qcurve" smooth="yes" name="inserted"/>
      <point x="470" y="300" name="fh02"/>
      <point x="500" y="228"/>
      <point x="500" y="188" type="qcurve" name="dh02"/>
      <point x="500" y="147"/>
      <point x="470" y="76" name="fh03"/>
      <point x="443.5" y="50.0" type="qcurve" smooth="yes" name="inserted"/>
      <point x="417" y="24" name="fh04"/>
      <point x="346" y="-7"/>
      <point x="305" y="-7" type="qcurve" name="ab01"/>
      <point x="274" y="-7"/>
      <point x="220" y="10"/>
      <point x="197.5" y="25.0" type="qcurve" smooth="yes" name="inserted"/>
      <point x="175" y="40"/>
      <point x="143" y="80"/>
      <point x="134" y="102" type="qcurve" name="iv02"/>
      <point x="134" y="47" type="line"/>
      <point x="134" y="0" type="line" name="sh04"/>
      <point x="35" y="0" type="line"/>
    </contour>
    <contour>
      <point x="472" y="188" type="qcurve" name="sh05"/>
      <point x="472" y="223"/>
      <point x="446" y="284" name="fh05"/>
      <point x="423.5" y="307.0" type="qcurve" smooth="yes" name="inserted"/>
      <point x="401" y="330" name="fh06"/>
      <point x="340" y="356"/>
      <point x="305" y="356" type="qcurve" name="sv02"/>
      <point x="270" y="356"/>
      <point x="208" y="330"/>
      <point x="185.0" y="307.0" type="qcurve" smooth="yes" name="inserted"/>
      <point x="162" y="284" name="fh07"/>
      <point x="136" y="223"/>
      <point x="136" y="188" type="qcurve" name="sh06"/>
      <point x="136" y="153"/>
      <point x="162" y="92" name="fh08"/>
      <point x="185.0" y="69.5" type="qcurve" smooth="yes" name="inserted"/>
      <point x="208" y="47"/>
      <point x="270" y="21"/>
      <point x="305" y="21" type="qcurve" name="sv03"/>
      <point x="340" y="21"/>
      <point x="401" y="47" name="fh09"/>
      <point x="423.5" y="69.5" type="qcurve" smooth="yes" name="inserted"/>
      <point x="446" y="92" name="fh10"/>
      <point x="472" y="153"/>
    </contour>
  </outline>
</glyph>
<glyph name="d" format="1">
  <advance width="535"/>
  <unicode hex="0064"/>
  <outline>
    <contour>
      <point x="401" y="47" type="line"/>
      <point x="401" y="102" type="line" name="iv01"/>
      <point x="392" y="80"/>
      <point x="360" y="40"/>
      <point x="337.5" y="25.0" type="qcurve" smooth="yes" name="inserted"/>
      <point x="315" y="10"/>
      <point x="261" y="-7"/>
      <point x="230" y="-7" type="qcurve" name="ab01"/>
      <point x="189" y="-7"/>
      <point x="118" y="24" name="fh01"/>
      <point x="91.5" y="50.0" type="qcurve" smooth="yes" name="inserted"/>
      <point x="65" y="76" name="fh02"/>
      <point x="35" y="147"/>
      <point x="35" y="188" type="qcurve" name="dh01"/>
      <point x="35" y="228"/>
      <point x="65" y="300" name="fh03"/>
      <point x="91.5" y="326.0" type="qcurve" smooth="yes" name="inserted"/>
      <point x="118" y="352" name="fh04"/>
      <point x="189" y="383" name="fv01"/>
      <point x="230" y="383" type="qcurve" name="at01"/>
      <point x="260" y="383"/>
      <point x="314" y="366"/>
      <point x="336.5" y="351.0" type="qcurve" smooth="yes" name="inserted"/>
      <point x="359" y="336" name="fv02"/>
      <point x="392" y="296"/>
      <point x="401" y="274" type="qcurve" name="iv02"/>
      <point x="400" y="300"/>
      <point x="399" y="350"/>
      <point x="399" y="376" type="qcurve" name="sh02"/>
      <point x="399" y="723" type="line"/>
      <point x="327" y="723" type="line" name="sh03"/>
      <point x="327" y="750" type="line" name="at02"/>
      <point x="426" y="750" type="line"/>
      <point x="426" y="27" type="line" name="dh02"/>
      <point x="500" y="27" type="line" name="sh04"/>
      <point x="500" y="0" type="line" name="ab02"/>
      <point x="401" y="0" type="line" name="sh01"/>
    </contour>
    <contour>
      <point x="63" y="188" type="qcurve" name="sh05"/>
      <point x="63" y="153"/>
      <point x="89" y="92" name="fh05"/>
      <point x="111.5" y="69.5" type="qcurve" smooth="yes" name="inserted"/>
      <point x="134" y="47" name="fh06"/>
      <point x="195" y="21"/>
      <point x="230" y="21" type="qcurve" name="sv01"/>
      <point x="265" y="21"/>
      <point x="327" y="47" name="fv03"/>
      <point x="350.0" y="69.5" type="qcurve" smooth="yes" name="inserted"/>
      <point x="373" y="92" name="fh07"/>
      <point x="399" y="153"/>
      <point x="399" y="188" type="qcurve" name="sh06"/>
      <point x="399" y="223"/>
      <point x="373" y="284" name="fh08"/>
      <point x="350.0" y="307.0" type="qcurve" smooth="yes" name="inserted"/>
      <point x="327" y="330"/>
      <point x="265" y="356"/>
      <point x="230" y="356" type="qcurve" name="sv02"/>
      <point x="195" y="356"/>
      <point x="134" y="330" name="fh09"/>
      <point x="111.5" y="307.0" type="qcurve" smooth="yes" name="inserted"/>
      <point x="89" y="284" name="fh10"/>
      <point x="63" y="223"/>
    </contour>
  </outline>
</glyph>
<glyph name="h" format="1">
  <advance width="534"/>
  <unicode hex="0068"/>
  <outline>
    <contour>
      <point x="315" y="27" type="line" name="sh02"/>
      <point x="394" y="27" type="line" name="sh01"/>
      <point x="394" y="268" type="line"/>
      <point x="392" y="303" name="fh01"/>
      <point x="345" y="353" name="fh02"/>
      <point x="303" y="355" type="qcurve" name="sv01"/>
      <point x="271" y="355"/>
      <point x="212" y="334"/>
      <point x="189.5" y="315.0" type="qcurve" smooth="yes" name="inserted"/>
      <point x="167" y="296"/>
      <point x="141" y="243"/>
      <point x="141" y="212" type="qcurve"/>
      <point x="141" y="27" type="line" name="sh03"/>
      <point x="219" y="27" type="line" name="sh04"/>
      <point x="219" y="0" type="line"/>
      <point x="35" y="0" type="line" name="ab01"/>
      <point x="35" y="27" type="line" name="sh05"/>
      <point x="113" y="27" type="line" name="dh01"/>
      <point x="113" y="723" type="line"/>
      <point x="40" y="723" type="line" name="sh06"/>
      <point x="40" y="750" type="line" name="at02"/>
      <point x="141" y="750" type="line"/>
      <point x="141" y="322" type="line" name="sh07"/>
      <point x="138" y="277" type="line" name="iv01"/>
      <point x="159" y="325"/>
      <point x="246" y="382" name="fh03"/>
      <point x="303" y="382" type="qcurve" name="at01"/>
      <point x="357" y="382" name="fh04"/>
      <point x="419" y="320" name="fh05"/>
      <point x="421" y="270" type="qcurve"/>
      <point x="421" y="27" type="line" name="dh02"/>
      <point x="499" y="27" type="line" name="sh08"/>
      <point x="499" y="0" type="line"/>
      <point x="315" y="0" type="line" name="ab02"/>
    </contour>
  </outline>
</glyph>
<glyph name="i" format="1">
  <advance width="254"/>
  <unicode hex="0069"/>
  <outline>
    <contour>
      <point x="35" y="27" type="line" name="sh01"/>
      <point x="115" y="27" type="line" name="dh01"/>
      <point x="115" y="348" type="line" name="sv01"/>
      <point x="35" y="348" type="line" name="sh02"/>
      <point x="35" y="375" type="line" name="at01"/>
      <point x="142" y="375" type="line"/>
      <point x="142" y="27" type="line" name="dh02"/>
      <point x="219" y="27" type="line" name="sh03"/>
      <point x="219" y="0" type="line" name="ab01"/>
      <point x="35" y="0" type="line"/>
    </contour>
    <contour>
      <point x="102" y="504" type="qcurve" name="sh05"/>
      <point x="102" y="515"/>
      <point x="118" y="531"/>
      <point x="129" y="531" type="qcurve" name="sv02"/>
      <point x="140" y="531"/>
      <point x="155" y="515"/>
      <point x="155" y="504" type="qcurve" name="sh04"/>
      <point x="155" y="493"/>
      <point x="140" y="478"/>
      <point x="129" y="478" type="qcurve" name="av01"/>
      <point x="118" y="478"/>
      <point x="102" y="493"/>
    </contour>
  </outline>
</glyph>
<glyph name="j" format="1">
  <advance width="175"/>
  <unicode hex="006A"/>
  <outline>
    <contour>
      <point x="35" y="375" type="line" name="at01"/>
      <point x="140" y="375" type="line"/>
      <point x="140" y="-6" type="line" name="dh02"/>
      <point x="140" y="-64"/>
      <point x="108" y="-151"/>
      <point x="79" y="-180" type="qcurve" name="av01"/>
      <point x="58" y="-161" type="line" name="sh01"/>
      <point x="83" y="-135"/>
      <point x="112" y="-58" name="fh01"/>
      <point x="112" y="-8" type="qcurve" name="dh01"/>
      <point x="112" y="348" type="line" name="sv01"/>
      <point x="35" y="348" type="line" name="sh02"/>
    </contour>
    <contour>
      <point x="101" y="504" type="qcurve" name="sh04"/>
      <point x="101" y="515"/>
      <point x="116" y="531"/>
      <point x="127" y="531" type="qcurve" name="sv02"/>
      <point x="138" y="531"/>
      <point x="153" y="515"/>
      <point x="153" y="504" type="qcurve" name="sh03"/>
      <point x="153" y="493"/>
      <point x="138" y="478"/>
      <point x="127" y="478" type="qcurve" name="av02"/>
      <point x="116" y="478"/>
      <point x="101" y="493"/>
    </contour>
  </outline>
</glyph>
<glyph name="l" format="1">
  <advance width="254"/>
  <unicode hex="006C"/>
  <outline>
    <contour>
      <point x="35" y="27" type="line" name="sh01"/>
      <point x="108" y="27" type="line" name="dh01"/>
      <point x="108" y="723" type="line"/>
      <point x="36" y="723" type="line" name="sh02"/>
      <point x="36" y="750" type="line" name="at01"/>
      <point x="136" y="750" type="line"/>
      <point x="136" y="27" type="line" name="dh02"/>
      <point x="219" y="27" type="line" name="sh03"/>
      <point x="219" y="0" type="line"/>
      <point x="35" y="0" type="line" name="ab01"/>
    </contour>
  </outline>
</glyph>
<glyph name="m" format="1">
  <advance width="814"/>
  <unicode hex="006D"/>
  <outline>
    <contour>
      <point x="595" y="27" type="line" name="sh04"/>
      <point x="674" y="27" type="line" name="sh03"/>
      <point x="674" y="268" type="line"/>
      <point x="672" y="303" name="fh01"/>
      <point x="625" y="353"/>
      <point x="583" y="355" type="qcurve" name="sv01"/>
      <point x="551" y="355"/>
      <point x="494" y="334"/>
      <point x="472.0" y="316.0" type="qcurve" smooth="yes" name="inserted"/>
      <point x="450" y="298"/>
      <point x="422" y="247"/>
      <point x="421" y="217" type="qcurve"/>
      <point x="421" y="27" type="line" name="dh02"/>
      <point x="499" y="27" type="line" name="sh05"/>
      <point x="499" y="0" type="line"/>
      <point x="315" y="0" type="line" name="ab03"/>
      <point x="315" y="27" type="line" name="sh06"/>
      <point x="394" y="27" type="line" name="sh01"/>
      <point x="394" y="268" type="line"/>
      <point x="392" y="303" name="fh02"/>
      <point x="345" y="353"/>
      <point x="303" y="355" type="qcurve" name="sv02"/>
      <point x="271" y="355"/>
      <point x="212" y="334"/>
      <point x="189.5" y="315.0" type="qcurve" smooth="yes" name="inserted"/>
      <point x="167" y="296"/>
      <point x="141" y="243"/>
      <point x="141" y="212" type="qcurve"/>
      <point x="141" y="27" type="line" name="sh07"/>
      <point x="219" y="27" type="line" name="sh08"/>
      <point x="219" y="0" type="line"/>
      <point x="35" y="0" type="line" name="ab01"/>
      <point x="35" y="27" type="line" name="sh09"/>
      <point x="113" y="27" type="line" name="dh01"/>
      <point x="113" y="348" type="line"/>
      <point x="40" y="348" type="line" name="sh10"/>
      <point x="40" y="375" type="line" name="at01"/>
      <point x="134" y="375" type="line" name="sh11"/>
      <point x="136" y="331" type="line"/>
      <point x="136" y="316"/>
      <point x="138" y="292"/>
      <point x="138" y="277" type="qcurve" name="iv01"/>
      <point x="158" y="325" name="fh03"/>
      <point x="246" y="382" name="fh04"/>
      <point x="303" y="382" type="qcurve" name="at02"/>
      <point x="353" y="382" name="fh05"/>
      <point x="415" y="327" name="fh06"/>
      <point x="420" y="282" type="qcurve" name="sh12"/>
      <point x="442" y="327"/>
      <point x="528" y="382" name="fh07"/>
      <point x="583" y="382" type="qcurve" name="at03"/>
      <point x="637" y="382" name="fh08"/>
      <point x="700" y="320" name="fh09"/>
      <point x="702" y="270" type="qcurve"/>
      <point x="702" y="27" type="line" name="sh02"/>
      <point x="779" y="27" type="line" name="sh13"/>
      <point x="779" y="0" type="line"/>
      <point x="595" y="0" type="line" name="ab02"/>
    </contour>
  </outline>
</glyph>
<glyph name="n" format="1">
  <advance width="534"/>
  <unicode hex="006E"/>
  <outline>
    <contour>
      <point x="315" y="27" type="line" name="sh02"/>
      <point x="394" y="27" type="line" name="sh01"/>
      <point x="394" y="268" type="line"/>
      <point x="392" y="303" name="fh01"/>
      <point x="345" y="353"/>
      <point x="303" y="355" type="qcurve" name="sv01"/>
      <point x="271" y="355"/>
      <point x="212" y="334"/>
      <point x="189.5" y="315.0" type="qcurve" smooth="yes" name="inserted"/>
      <point x="167" y="296"/>
      <point x="141" y="243"/>
      <point x="141" y="212" type="qcurve"/>
      <point x="141" y="27" type="line" name="sh03"/>
      <point x="219" y="27" type="line" name="sh04"/>
      <point x="219" y="0" type="line"/>
      <point x="35" y="0" type="line" name="ab01"/>
      <point x="35" y="27" type="line" name="sh05"/>
      <point x="113" y="27" type="line" name="dh01"/>
      <point x="113" y="348" type="line"/>
      <point x="40" y="348" type="line" name="sh06"/>
      <point x="40" y="375" type="line" name="at01"/>
      <point x="134" y="375" type="line" name="sh07"/>
      <point x="136" y="331" type="line"/>
      <point x="136" y="316"/>
      <point x="138" y="292"/>
      <point x="138" y="277" type="qcurve" name="iv01"/>
      <point x="158" y="325" name="fv01"/>
      <point x="246" y="382" name="fh02"/>
      <point x="303" y="382" type="qcurve" name="at02"/>
      <point x="357" y="382" name="fh03"/>
      <point x="419" y="320" name="fh04"/>
      <point x="421" y="270" type="qcurve"/>
      <point x="421" y="27" type="line" name="dh02"/>
      <point x="499" y="27" type="line" name="sh08"/>
      <point x="499" y="0" type="line"/>
      <point x="315" y="0" type="line" name="ab02"/>
    </contour>
  </outline>
</glyph>
<glyph name="o" format="1">
  <advance width="463"/>
  <unicode hex="006F"/>
  <outline>
    <contour>
      <point x="36" y="188" type="qcurve" name="dh01"/>
      <point x="36" y="228"/>
      <point x="66" y="300" name="fh01"/>
      <point x="92.5" y="326.5" type="qcurve" smooth="yes" name="inserted"/>
      <point x="119" y="353" name="fh02"/>
      <point x="190" y="384"/>
      <point x="231" y="384" type="qcurve" name="at01"/>
      <point x="272" y="384"/>
      <point x="344" y="353" name="fh03"/>
      <point x="370.5" y="326.5" type="qcurve" smooth="yes" name="inserted"/>
      <point x="397" y="300" name="fh04"/>
      <point x="428" y="228"/>
      <point x="428" y="188" type="qcurve" name="dh02"/>
      <point x="428" y="147"/>
      <point x="397" y="76" name="fh05"/>
      <point x="370.5" y="50.0" type="qcurve" smooth="yes" name="inserted"/>
      <point x="344" y="24" name="fh06"/>
      <point x="272" y="-7"/>
      <point x="231" y="-7" type="qcurve" name="ab01"/>
      <point x="190" y="-7"/>
      <point x="119" y="24" name="fh07"/>
      <point x="92.5" y="50.0" type="qcurve" smooth="yes" name="inserted"/>
      <point x="66" y="76" name="fh08"/>
      <point x="36" y="147"/>
    </contour>
    <contour>
      <point x="64" y="188" type="qcurve" name="sh01"/>
      <point x="64" y="153"/>
      <point x="90" y="92" name="fv01"/>
      <point x="112.5" y="69.5" type="qcurve" smooth="yes" name="inserted"/>
      <point x="135" y="47" name="fh09"/>
      <point x="196" y="21"/>
      <point x="231" y="21" type="qcurve" name="sv01"/>
      <point x="265" y="21"/>
      <point x="327" y="47" name="fv02"/>
      <point x="349.5" y="69.5" type="qcurve" smooth="yes" name="inserted"/>
      <point x="372" y="92"/>
      <point x="399" y="153"/>
      <point x="399" y="188" type="qcurve" name="sh02"/>
      <point x="399" y="223"/>
      <point x="372" y="284" name="fv03"/>
      <point x="349.5" y="307.0" type="qcurve" smooth="yes" name="inserted"/>
      <point x="327" y="330" name="fv04"/>
      <point x="265" y="356"/>
      <point x="231" y="356" type="qcurve" name="sv02"/>
      <point x="196" y="356"/>
      <point x="135" y="330" name="fh10"/>
      <point x="112.5" y="307.0" type="qcurve" smooth="yes" name="inserted"/>
      <point x="90" y="284" name="fh11"/>
      <point x="64" y="223"/>
    </contour>
  </outline>
</glyph>
<glyph name="q" format="1">
  <advance width="536"/>
  <unicode hex="0071"/>
  <outline>
    <contour>
      <point x="312" y="-223" type="line" name="sh02"/>
      <point x="398" y="-223" type="line" name="sh01"/>
      <point x="398" y="53" type="line"/>
      <point x="398" y="64"/>
      <point x="400" y="88"/>
      <point x="400" y="100" type="qcurve" name="iv01"/>
      <point x="382" y="55"/>
      <point x="291" y="-8"/>
      <point x="230" y="-8" type="qcurve" name="ab01"/>
      <point x="189" y="-8"/>
      <point x="118" y="23" name="fh01"/>
      <point x="91.5" y="49.0" type="qcurve" smooth="yes" name="inserted"/>
      <point x="65" y="75" name="fh02"/>
      <point x="35" y="146"/>
      <point x="35" y="187" type="qcurve" name="dh01"/>
      <point x="35" y="227"/>
      <point x="65" y="299" name="fh03"/>
      <point x="91.5" y="325.0" type="qcurve" smooth="yes" name="inserted"/>
      <point x="118" y="351" name="fh04"/>
      <point x="189" y="382"/>
      <point x="230" y="382" type="qcurve" name="at01"/>
      <point x="260" y="382"/>
      <point x="315" y="364"/>
      <point x="337.5" y="349.0" type="qcurve" smooth="yes" name="inserted"/>
      <point x="360" y="334" name="fv01"/>
      <point x="392" y="293"/>
      <point x="401" y="271" type="qcurve" name="sh04"/>
      <point x="401" y="297"/>
      <point x="405" y="349"/>
      <point x="405" y="375" type="qcurve"/>
      <point x="501" y="375" type="line" name="at02"/>
      <point x="501" y="348" type="line" name="sh05"/>
      <point x="426" y="348" type="line"/>
      <point x="426" y="-223" type="line" name="dh02"/>
      <point x="496" y="-223" type="line" name="sh06"/>
      <point x="496" y="-250" type="line"/>
      <point x="312" y="-250" type="line" name="ab02"/>
    </contour>
    <contour>
      <point x="63" y="187" type="qcurve" name="sh07"/>
      <point x="63" y="152"/>
      <point x="89" y="91" name="fh05"/>
      <point x="111.5" y="68.0" type="qcurve" smooth="yes" name="inserted"/>
      <point x="134" y="45" name="fh06"/>
      <point x="195" y="19"/>
      <point x="230" y="19" type="qcurve" name="sv01"/>
      <point x="265" y="19"/>
      <point x="327" y="45"/>
      <point x="350.0" y="68.0" type="qcurve" smooth="yes" name="inserted"/>
      <point x="373" y="91" name="fh07"/>
      <point x="399" y="152"/>
      <point x="399" y="187" type="qcurve" name="sh03"/>
      <point x="399" y="222"/>
      <point x="373" y="283" name="fh08"/>
      <point x="350.0" y="305.5" type="qcurve" smooth="yes" name="inserted"/>
      <point x="327" y="328"/>
      <point x="265" y="354"/>
      <point x="230" y="354" type="qcurve" name="sv02"/>
      <point x="195" y="354"/>
      <point x="134" y="328" name="fh09"/>
      <point x="111.5" y="305.5" type="qcurve" smooth="yes" name="inserted"/>
      <point x="89" y="283" name="fh10"/>
      <point x="63" y="222"/>
    </contour>
  </outline>
</glyph>
<glyph name="u" format="1">
  <advance width="528"/>
  <unicode hex="0075"/>
  <outline>
    <contour>
      <point x="35" y="375" type="line" name="at01"/>
      <point x="139" y="375" type="line" name="sh01"/>
      <point x="139" y="107" type="line"/>
      <point x="141" y="72" name="fh01"/>
      <point x="188" y="22"/>
      <point x="230" y="20" type="qcurve" name="sv01"/>
      <point x="262" y="20"/>
      <point x="321" y="41"/>
      <point x="343.5" y="60.0" type="qcurve" smooth="yes" name="inserted"/>
      <point x="366" y="79"/>
      <point x="392" y="132"/>
      <point x="392" y="163" type="qcurve"/>
      <point x="392" y="348" type="line" name="sh02"/>
      <point x="315" y="348" type="line" name="sh03"/>
      <point x="315" y="375" type="line" name="at02"/>
      <point x="419" y="375" type="line" name="dh02"/>
      <point x="419" y="25" type="line"/>
      <point x="493" y="25" type="line" name="sh04"/>
      <point x="493" y="0" type="line" name="ab01"/>
      <point x="398" y="0" type="line"/>
      <point x="396" y="53" type="line"/>
      <point x="395" y="98" type="line" name="sh05"/>
      <point x="375" y="50"/>
      <point x="286" y="-7"/>
      <point x="230" y="-7" type="qcurve" name="ab02"/>
      <point x="176" y="-7" name="fh02"/>
      <point x="113" y="55" name="mh01"/>
      <point x="111" y="105" type="qcurve"/>
      <point x="111" y="348" type="line" name="dh01"/>
      <point x="35" y="348" type="line" name="sh06"/>
    </contour>
  </outline>
</glyph>
<glyph name="w" format="1">
  <advance width="854"/>
  <unicode hex="0077"/>
  <outline>
    <contour>
      <point x="665" y="375" type="line" name="at03"/>
      <point x="819" y="375" type="line"/>
      <point x="819" y="348" type="line" name="sh03"/>
      <point x="753" y="348" type="line" name="sh02"/>
      <point x="706" y="254"/>
      <point x="614" y="71"/>
      <point x="568" y="-23" type="qcurve" name="sh01"/>
      <point x="432" y="250" type="line" name="ih01"/>
      <point x="296" y="-23" type="line" name="ah01"/>
      <point x="249" y="71" name="fh01"/>
      <point x="157" y="254"/>
      <point x="110" y="348" type="qcurve" name="sh05"/>
      <point x="35" y="348" type="line" name="sh06"/>
      <point x="35" y="375" type="line" name="at01"/>
      <point x="205" y="375" type="line"/>
      <point x="205" y="348" type="line" name="sh08"/>
      <point x="139" y="348" type="line" name="sh07"/>
      <point x="178" y="268"/>
      <point x="257" y="109" name="fh02"/>
      <point x="296" y="30" type="qcurve" name="sh09"/>
      <point x="324" y="89"/>
      <point x="381" y="205"/>
      <point x="410" y="263" type="qcurve" name="ih02"/>
      <point x="401" y="284"/>
      <point x="384" y="326"/>
      <point x="376" y="348" type="qcurve" name="sh04"/>
      <point x="307" y="348" type="line" name="sh10"/>
      <point x="307" y="375" type="line" name="at02"/>
      <point x="480" y="375" type="line"/>
      <point x="480" y="348" type="line" name="sh12"/>
      <point x="411" y="348" type="line" name="sh11"/>
      <point x="450" y="268"/>
      <point x="529" y="109" name="fh03"/>
      <point x="568" y="30" type="qcurve" name="sh13"/>
      <point x="606" y="111"/>
      <point x="684" y="268"/>
      <point x="724" y="348" type="qcurve" name="sh14"/>
      <point x="665" y="348" type="line" name="sh15"/>
    </contour>
  </outline>
</glyph>
<glyph name="y" format="1">
  <advance width="595"/>
  <unicode hex="0079"/>
  <outline>
    <contour>
      <point x="92" y="-223" type="line" name="sh02"/>
      <point x="175" y="-223" type="line" name="sh01"/>
      <point x="202" y="-168"/>
      <point x="258" y="-57"/>
      <point x="285" y="-3" type="qcurve" name="ih02"/>
      <point x="240" y="85"/>
      <point x="153" y="260"/>
      <point x="109" y="348" type="qcurve" name="dh01"/>
      <point x="35" y="348" type="line" name="sh04"/>
      <point x="35" y="375" type="line" name="at01"/>
      <point x="208" y="375" type="line"/>
      <point x="208" y="348" type="line" name="sh06"/>
      <point x="141" y="348" type="line" name="sh05"/>
      <point x="181" y="267"/>
      <point x="262" y="107"/>
      <point x="300" y="26" type="qcurve" name="ih03"/>
      <point x="337" y="104"/>
      <point x="419" y="267"/>
      <point x="460" y="348" type="qcurve" name="sh03"/>
      <point x="403" y="348" type="line" name="sh07"/>
      <point x="403" y="375" type="line" name="at02"/>
      <point x="560" y="375" type="line"/>
      <point x="560" y="348" type="line" name="sh08"/>
      <point x="491" y="348" type="line" name="dh02"/>
      <point x="419.5" y="205.0" name="inserted"/>
      <point x="277.5" y="-80.5"/>
      <point x="207" y="-223" type="qcurve" name="ih01"/>
      <point x="276" y="-223" type="line" name="sh09"/>
      <point x="276" y="-250" type="line"/>
      <point x="92" y="-250" type="line" name="ab01"/>
    </contour>
  </outline>
</glyph>
<glyph name="braceleft" format="1">
  <advance width="282"/>
  <unicode hex="007B"/>
  <outline>
    <contour>
      <point x="30" y="281" type="qcurve" name="sh01"/>
      <point x="30" y="316" type="line" name="iv01"/>
      <point x="54" y="317"/>
      <point x="85" y="344"/>
      <point x="94.0" y="364.0" type="qcurve" smooth="yes" name="inserted"/>
      <point x="103" y="384"/>
      <point x="109" y="431"/>
      <point x="109" y="451" type="qcurve" name="sh02"/>
      <point x="109" y="628" type="line"/>
      <point x="109" y="674"/>
      <point x="125" y="722" name="fh01"/>
      <point x="137.5" y="732.5" type="qcurve" smooth="yes" name="inserted"/>
      <point x="150" y="743"/>
      <point x="183" y="746"/>
      <point x="201" y="746" type="qcurve"/>
      <point x="244" y="746" type="line" name="at01"/>
      <point x="244" y="719" type="line" name="sh05"/>
      <point x="189" y="719" type="line"/>
      <point x="158" y="719"/>
      <point x="137" y="670"/>
      <point x="137" y="608" type="qcurve"/>
      <point x="137" y="463" type="line" name="sh06"/>
      <point x="137" y="419"/>
      <point x="126" y="362" name="fh02"/>
      <point x="117.0" y="344.0" type="qcurve" smooth="yes" name="inserted"/>
      <point x="108" y="326"/>
      <point x="84" y="306"/>
      <point x="71" y="299" type="qcurve" name="ih01"/>
      <point x="84" y="292"/>
      <point x="108" y="271"/>
      <point x="117.0" y="252.5" type="qcurve" smooth="yes" name="inserted"/>
      <point x="126" y="234"/>
      <point x="137" y="178"/>
      <point x="137" y="135" type="qcurve" name="sh03"/>
      <point x="137" y="-11" type="line"/>
      <point x="137" y="-72"/>
      <point x="158" y="-121"/>
      <point x="189" y="-121" type="qcurve"/>
      <point x="244" y="-121" type="line" name="sh04"/>
      <point x="244" y="-148" type="line" name="av01"/>
      <point x="201" y="-148" type="line"/>
      <point x="181" y="-148"/>
      <point x="147" y="-145"/>
      <point x="135.0" y="-131.5" type="qcurve" smooth="yes" name="inserted"/>
      <point x="123" y="-118" name="fh03"/>
      <point x="109" y="-58"/>
      <point x="109" y="-1" type="qcurve"/>
      <point x="109" y="146" type="line" name="ah01"/>
      <point x="109" y="166"/>
      <point x="103" y="213"/>
      <point x="94.0" y="233.0" type="qcurve" smooth="yes" name="inserted"/>
      <point x="85" y="253"/>
      <point x="54" y="280"/>
    </contour>
  </outline>
</glyph>
<glyph name="bar" format="1">
  <advance width="229"/>
  <unicode hex="007C"/>
  <outline>
    <contour>
      <point x="97" y="-232" type="line" name="dh01"/>
      <point x="97" y="700" type="line" name="at01"/>
      <point x="125" y="700" type="line"/>
      <point x="125" y="-232" type="line" name="dh02"/>
    </contour>
  </outline>
</glyph>
<glyph name="braceright" format="1">
  <advance width="320"/>
  <unicode hex="007D"/>
  <outline>
    <contour>
      <point x="290" y="316" type="qcurve" name="iv01"/>
      <point x="290" y="281" type="line" name="sh02"/>
      <point x="260" y="279"/>
      <point x="228" y="241"/>
      <point x="220.5" y="215.0" type="qcurve" smooth="yes" name="inserted"/>
      <point x="213" y="189"/>
      <point x="211" y="135"/>
      <point x="211" y="117" type="qcurve"/>
      <point x="211" y="-30" type="line" name="sh01"/>
      <point x="211" y="-76"/>
      <point x="195" y="-125" name="fh01"/>
      <point x="182.5" y="-135.5" type="qcurve" smooth="yes" name="inserted"/>
      <point x="170" y="-146"/>
      <point x="137" y="-148"/>
      <point x="119" y="-148" type="qcurve"/>
      <point x="76" y="-148" type="line" name="av01"/>
      <point x="76" y="-121" type="line" name="sh03"/>
      <point x="131" y="-121" type="line"/>
      <point x="162" y="-121"/>
      <point x="183" y="-72"/>
      <point x="183" y="-11" type="qcurve" name="ah01"/>
      <point x="183" y="165" type="line"/>
      <point x="183" y="198"/>
      <point x="197" y="244" name="fh02"/>
      <point x="207.0" y="259.5" type="qcurve" smooth="yes" name="inserted"/>
      <point x="217" y="275"/>
      <point x="240" y="293"/>
      <point x="249" y="299" type="qcurve" name="ih01"/>
      <point x="236" y="306"/>
      <point x="212" y="326" name="fh03"/>
      <point x="203.0" y="344.0" type="qcurve" smooth="yes" name="inserted"/>
      <point x="194" y="362"/>
      <point x="183" y="419"/>
      <point x="183" y="463" type="qcurve" name="sh04"/>
      <point x="183" y="608" type="line"/>
      <point x="183" y="670"/>
      <point x="162" y="719"/>
      <point x="131" y="719" type="qcurve"/>
      <point x="76" y="719" type="line" name="sh05"/>
      <point x="76" y="746" type="line" name="at01"/>
      <point x="119" y="746" type="line"/>
      <point x="137" y="746"/>
      <point x="170" y="744" name="fh04"/>
      <point x="182.5" y="733.5" type="qcurve" smooth="yes" name="inserted"/>
      <point x="195" y="723" name="fh05"/>
      <point x="211" y="674"/>
      <point x="211" y="628" type="qcurve"/>
      <point x="211" y="480" type="line" name="sh06"/>
      <point x="211" y="462"/>
      <point x="213" y="407"/>
      <point x="220.5" y="381.5" type="qcurve" smooth="yes" name="inserted"/>
      <point x="228" y="356"/>
      <point x="260" y="317"/>
    </contour>
  </outline>
</glyph>
<glyph name="asciitilde" format="1">
  <advance width="489"/>
  <unicode hex="007E"/>
  <outline>
    <contour>
      <point x="266" y="494" type="qcurve"/>
      <point x="250" y="511"/>
      <point x="227" y="523"/>
      <point x="213" y="523" type="qcurve" name="sv01"/>
      <point x="205" y="523"/>
      <point x="185" y="519" name="fh01"/>
      <point x="175.0" y="513.0" type="qcurve" smooth="yes" name="inserted"/>
      <point x="165" y="507" name="fh02"/>
      <point x="151" y="486"/>
      <point x="149" y="470" type="qcurve" name="sh01"/>
      <point x="144" y="471"/>
      <point x="135" y="471"/>
      <point x="130" y="472" type="qcurve" name="ah01"/>
      <point x="131" y="491"/>
      <point x="147" y="518" name="fh03"/>
      <point x="159.0" y="526.5" type="qcurve" smooth="yes" name="inserted"/>
      <point x="171" y="535" name="fh04"/>
      <point x="200" y="543"/>
      <point x="214" y="543" type="qcurve" name="sv02"/>
      <point x="234" y="543"/>
      <point x="268" y="523"/>
      <point x="284" y="506" type="qcurve"/>
      <point x="300" y="489"/>
      <point x="324" y="477"/>
      <point x="338" y="477" type="qcurve" name="sv03"/>
      <point x="345" y="477"/>
      <point x="366" y="481"/>
      <point x="375.5" y="487.0" type="qcurve" smooth="yes" name="inserted"/>
      <point x="385" y="493" name="fh05"/>
      <point x="399" y="514"/>
      <point x="401" y="530" type="qcurve" name="sh02"/>
      <point x="406" y="529"/>
      <point x="416" y="529"/>
      <point x="421" y="528" type="qcurve" name="sh03"/>
      <point x="420" y="509"/>
      <point x="404" y="482" name="fh06"/>
      <point x="392.0" y="473.5" type="qcurve" smooth="yes" name="inserted"/>
      <point x="380" y="465" name="fh07"/>
      <point x="351" y="457"/>
      <point x="337" y="457" type="qcurve" name="av01"/>
      <point x="317" y="457"/>
      <point x="282" y="477"/>
    </contour>
  </outline>
</glyph>
<glyph name="cent" format="1">
  <advance width="385"/>
  <unicode hex="00A2"/>
  <outline>
    <contour>
      <point x="337" y="57" type="qcurve" name="sv01"/>
      <point x="355" y="36" type="line" name="sh01"/>
      <point x="329.5" y="16.0" name="inserted"/>
      <point x="270.0" y="-5.0"/>
      <point x="236" y="-6" type="qcurve" name="ih01"/>
      <point x="236" y="-68" type="line" name="sv02"/>
      <point x="208" y="-68" type="line"/>
      <point x="208" y="-4" type="line" name="sh02"/>
      <point x="171" y="0"/>
      <point x="108" y="33" name="fh01"/>
      <point x="85.0" y="58.5" type="qcurve" smooth="yes" name="inserted"/>
      <point x="62" y="84" name="fh02"/>
      <point x="36" y="150"/>
      <point x="36" y="188" type="qcurve" name="dh01"/>
      <point x="36" y="225"/>
      <point x="62" y="292" name="fh03"/>
      <point x="85.0" y="318.0" type="qcurve" smooth="yes" name="inserted"/>
      <point x="108" y="344" name="fh04"/>
      <point x="171" y="377"/>
      <point x="208" y="381" type="qcurve" name="sh04"/>
      <point x="208" y="438" type="line"/>
      <point x="236" y="438" type="line" name="sv03"/>
      <point x="236" y="383" type="line" name="sh06"/>
      <point x="270" y="382"/>
      <point x="331" y="360"/>
      <point x="355" y="340" type="qcurve"/>
      <point x="354.5" y="339.5" name="inserted"/>
      <point x="354.0" y="339.0"/>
      <point x="354" y="339" type="qcurve"/>
      <point x="354" y="337"/>
      <point x="355" y="335"/>
      <point x="355" y="333" type="qcurve"/>
      <point x="355" y="247" type="line" name="dh02"/>
      <point x="329" y="247" type="line" name="sh07"/>
      <point x="329" y="324" type="line"/>
      <point x="309" y="338" name="fh05"/>
      <point x="262" y="355"/>
      <point x="236" y="355" type="qcurve" name="sv04"/>
      <point x="236" y="21" type="line" name="sh05"/>
      <point x="265" y="22"/>
      <point x="316" y="41" name="fh06"/>
    </contour>
    <contour>
      <point x="64" y="188" type="qcurve" name="sh08"/>
      <point x="64" y="156"/>
      <point x="86" y="100" name="fh07"/>
      <point x="105.5" y="78.0" type="qcurve" smooth="yes" name="inserted"/>
      <point x="125" y="56" name="fv01"/>
      <point x="177" y="27" name="fv02"/>
      <point x="208" y="23" type="qcurve" name="sh03"/>
      <point x="208" y="352" type="line" name="sv05"/>
      <point x="177" y="349" name="fh08"/>
      <point x="125" y="320" name="fv03"/>
      <point x="105.5" y="298.5" type="qcurve" smooth="yes" name="inserted"/>
      <point x="86" y="277" name="fv04"/>
      <point x="64" y="220"/>
    </contour>
  </outline>
</glyph>
<glyph name="currency" format="1">
  <advance width="500"/>
  <unicode hex="00A4"/>
  <outline>
    <contour>
      <point x="137" y="361" type="qcurve" name="sh01"/>
      <point x="137" y="338"/>
      <point x="154" y="298"/>
      <point x="169.0" y="283.0" type="qcurve" smooth="yes" name="inserted"/>
      <point x="184" y="268"/>
      <point x="224" y="250"/>
      <point x="247" y="250" type="qcurve" name="sv01"/>
      <point x="270" y="250"/>
      <point x="310" y="268"/>
      <point x="325.0" y="283.0" type="qcurve" smooth="yes" name="inserted"/>
      <point x="340" y="298"/>
      <point x="357" y="338"/>
      <point x="357" y="361" type="qcurve" name="sh02"/>
      <point x="357" y="384"/>
      <point x="340" y="424"/>
      <point x="325.0" y="439.0" type="qcurve" smooth="yes" name="inserted"/>
      <point x="310" y="454"/>
      <point x="270" y="472"/>
      <point x="247" y="472" type="qcurve" name="sv02"/>
      <point x="224" y="472"/>
      <point x="184" y="454"/>
      <point x="169.0" y="439.0" type="qcurve" smooth="yes" name="inserted"/>
      <point x="154" y="424"/>
      <point x="137" y="384"/>
    </contour>
    <contour>
      <point x="109" y="361" type="qcurve" name="ah01"/>
      <point x="109" y="385"/>
      <point x="125" y="428"/>
      <point x="139" y="446" type="qcurve" name="ih01"/>
      <point x="104" y="481" type="line"/>
      <point x="124" y="501" type="line"/>
      <point x="159" y="466" type="line" name="ih02"/>
      <point x="177" y="481"/>
      <point x="221" y="499"/>
      <point x="247" y="499" type="qcurve" name="sv03"/>
      <point x="273" y="499"/>
      <point x="318" y="481"/>
      <point x="335" y="465" type="qcurve" name="ih03"/>
      <point x="370" y="500" type="line"/>
      <point x="390" y="481" type="line" name="mh01"/>
      <point x="355" y="446" type="line" name="ih04"/>
      <point x="370.0" y="428.0" name="inserted"/>
      <point x="385.0" y="385.5"/>
      <point x="385" y="361" type="qcurve" name="sh03"/>
      <point x="385" y="335"/>
      <point x="367" y="291"/>
      <point x="353" y="273" type="qcurve" name="sh04"/>
      <point x="390" y="235" type="line"/>
      <point x="370" y="215" type="line"/>
      <point x="332" y="253" type="line" name="sh05"/>
      <point x="314.0" y="238.0" name="inserted"/>
      <point x="271.5" y="223.0"/>
      <point x="247" y="223" type="qcurve" name="av01"/>
      <point x="223" y="223"/>
      <point x="179" y="238"/>
      <point x="162" y="252" type="qcurve" name="sh06"/>
      <point x="124" y="214" type="line"/>
      <point x="104" y="234" type="line"/>
      <point x="142" y="272" type="line" name="sh07"/>
      <point x="125.5" y="291.0" name="inserted"/>
      <point x="109.0" y="335.5"/>
    </contour>
  </outline>
</glyph>
<glyph name="section" format="1">
  <advance width="500"/>
  <unicode hex="00A7"/>
  <outline>
    <contour>
      <point x="177" y="321" type="qcurve"/>
      <point x="189" y="294" name="fh01"/>
      <point x="239" y="267"/>
      <point x="268" y="269" type="qcurve" name="dv02"/>
      <point x="287" y="270"/>
      <point x="318" y="289"/>
      <point x="329.0" y="303.0" type="qcurve" smooth="yes" name="inserted"/>
      <point x="340" y="317" name="fh02"/>
      <point x="350" y="351"/>
      <point x="348" y="369" type="qcurve" name="dh03"/>
      <point x="345" y="389"/>
      <point x="326" y="421" name="fh03"/>
      <point x="312.0" y="432.0" type="qcurve" smooth="yes" name="inserted"/>
      <point x="298" y="443"/>
      <point x="264" y="453"/>
      <point x="247" y="452" type="qcurve" name="dv04"/>
      <point x="221" y="450"/>
      <point x="186" y="423" name="fh04"/>
      <point x="177.0" y="404.0" type="qcurve" smooth="yes" name="inserted"/>
      <point x="168" y="385"/>
      <point x="167" y="341" name="dh02"/>
    </contour>
    <contour>
      <point x="242" y="153" type="qcurve"/>
      <point x="213" y="201" name="fh05"/>
      <point x="174" y="269" name="fh06"/>
      <point x="156" y="300" type="qcurve" name="fh07"/>
      <point x="144" y="321"/>
      <point x="138" y="367" name="dh01"/>
      <point x="143.0" y="389.0" type="qcurve" smooth="yes" name="inserted"/>
      <point x="148" y="411" name="fh08"/>
      <point x="174" y="449"/>
      <point x="194" y="462" type="qcurve" name="fh09"/>
      <point x="219" y="476" name="dv03"/>
      <point x="274" y="476"/>
      <point x="298" y="465" type="qcurve" name="ih02"/>
      <point x="283" y="490" name="fh10"/>
      <point x="255" y="541"/>
      <point x="240" y="567" type="qcurve"/>
      <point x="225" y="593"/>
      <point x="211" y="631"/>
      <point x="210.0" y="645.0" type="qcurve" smooth="yes" name="inserted"/>
      <point x="209" y="659" name="ih01"/>
      <point x="217" y="680"/>
      <point x="224" y="688" type="qcurve" name="fh11"/>
      <point x="235" y="703"/>
      <point x="280" y="727"/>
      <point x="297" y="736" type="qcurve" name="av02"/>
      <point x="300" y="731"/>
      <point x="307" y="719"/>
      <point x="311" y="713" type="qcurve" name="sh02"/>
      <point x="298" y="705"/>
      <point x="275" y="693"/>
      <point x="263" y="685" type="qcurve"/>
      <point x="237" y="670"/>
      <point x="242" y="619" name="sh01"/>
      <point x="271" y="569" type="qcurve"/>
      <point x="293" y="531"/>
      <point x="336" y="456" name="fh12"/>
      <point x="358" y="418" type="qcurve" name="fh13"/>
      <point x="371" y="397"/>
      <point x="377" y="352" name="dh04"/>
      <point x="371.5" y="330.0" type="qcurve" smooth="yes" name="inserted"/>
      <point x="366" y="308" name="fh14"/>
      <point x="339" y="271"/>
      <point x="319" y="258" type="qcurve" name="fh15"/>
      <point x="295" y="243" name="dv01"/>
      <point x="240" y="242"/>
      <point x="215" y="254" type="qcurve" name="ih03"/>
      <point x="275" y="152" type="line"/>
      <point x="290" y="126"/>
      <point x="304" y="88"/>
      <point x="305.0" y="73.5" type="qcurve" smooth="yes" name="inserted"/>
      <point x="306" y="59" name="ih04"/>
      <point x="298" y="38"/>
      <point x="291" y="30" type="qcurve" name="fh16"/>
      <point x="279" y="14"/>
      <point x="235" y="-9"/>
      <point x="218" y="-18" type="qcurve" name="av01"/>
      <point x="215" y="-12"/>
      <point x="208" y="0"/>
      <point x="204" y="6" type="qcurve" name="sh04"/>
      <point x="217" y="13"/>
      <point x="240" y="26"/>
      <point x="252" y="33" type="qcurve"/>
      <point x="278" y="48" name="sh03"/>
      <point x="272" y="101"/>
    </contour>
  </outline>
</glyph>
<glyph name="dieresis" format="1">
  <advance width="370"/>
  <unicode hex="00A8"/>
  <outline>
    <contour>
      <point x="241" y="504" type="qcurve" name="sh01"/>
      <point x="241" y="515"/>
      <point x="256" y="531"/>
      <point x="267" y="531" type="qcurve" name="sv02"/>
      <point x="278" y="531"/>
      <point x="293" y="515"/>
      <point x="293" y="504" type="qcurve" name="sh02"/>
      <point x="293" y="493"/>
      <point x="278" y="478"/>
      <point x="267" y="478" type="qcurve" name="sv03"/>
      <point x="256" y="478"/>
      <point x="241" y="493"/>
    </contour>
    <contour>
      <point x="75" y="504" type="qcurve" name="ah01"/>
      <point x="75" y="515"/>
      <point x="91" y="531"/>
      <point x="102" y="531" type="qcurve" name="sv01"/>
      <point x="113" y="531"/>
      <point x="128" y="515"/>
      <point x="128" y="504" type="qcurve" name="sh03"/>
      <point x="128" y="493"/>
      <point x="113" y="478"/>
      <point x="102" y="478" type="qcurve" name="av01"/>
      <point x="91" y="478"/>
      <point x="75" y="493"/>
    </contour>
  </outline>
</glyph>
<glyph name="hyphen_" format="1">
  <advance width="300"/>
  <unicode hex="00AD"/>
  <outline>
    <contour>
      <point x="53" y="177" type="line" name="dh01"/>
      <point x="53" y="204" type="line" name="dv01"/>
      <point x="237" y="204" type="line"/>
      <point x="237" y="177" type="line" name="dh02"/>
    </contour>
  </outline>
</glyph>
<glyph name="registered" format="1">
  <advance width="801"/>
  <unicode hex="00AE"/>
  <outline>
    <contour>
      <point x="399" y="135" type="qcurve" name="sv01"/>
      <point x="448" y="135"/>
      <point x="535" y="171" name="fh01"/>
      <point x="567.5" y="202.5" type="qcurve" smooth="yes" name="inserted"/>
      <point x="600" y="234" name="fh02"/>
      <point x="637" y="321"/>
      <point x="637" y="371" type="qcurve" name="sh01"/>
      <point x="637" y="423"/>
      <point x="600" y="510" name="fh03"/>
      <point x="567.5" y="542.0" type="qcurve" smooth="yes" name="inserted"/>
      <point x="535" y="574" name="fh04"/>
      <point x="448" y="610"/>
      <point x="399" y="610" type="qcurve" name="sv02"/>
      <point x="350" y="610"/>
      <point x="264" y="574" name="fh05"/>
      <point x="232.0" y="542.0" type="qcurve" smooth="yes" name="inserted"/>
      <point x="200" y="510" name="fh06"/>
      <point x="163" y="423"/>
      <point x="163" y="371" type="qcurve" name="sh02"/>
      <point x="163" y="321"/>
      <point x="200" y="234" name="fh07"/>
      <point x="232.0" y="202.5" type="qcurve" smooth="yes" name="inserted"/>
      <point x="264" y="171" name="fh08"/>
      <point x="350" y="135"/>
    </contour>
    <contour>
      <point x="400" y="117" type="qcurve" name="sv03"/>
      <point x="346" y="117"/>
      <point x="252" y="155" name="fv01"/>
      <point x="217.5" y="189.0" type="qcurve" smooth="yes" name="inserted"/>
      <point x="183" y="223"/>
      <point x="143" y="317"/>
      <point x="143" y="372" type="qcurve" name="ah01"/>
      <point x="143" y="427"/>
      <point x="183" y="521"/>
      <point x="217.5" y="555.5" type="qcurve" smooth="yes" name="inserted"/>
      <point x="252" y="590" name="fv02"/>
      <point x="346" y="628" name="fv03"/>
      <point x="400" y="628" type="qcurve" name="av01"/>
      <point x="454" y="628" name="fv04"/>
      <point x="548" y="590" name="fh09"/>
      <point x="582.5" y="555.5" type="qcurve" smooth="yes" name="inserted"/>
      <point x="617" y="521" name="fh10"/>
      <point x="657" y="427"/>
      <point x="657" y="372" type="qcurve" name="sh03"/>
      <point x="657" y="317"/>
      <point x="617" y="223" name="fh11"/>
      <point x="582.5" y="189.0" type="qcurve" smooth="yes" name="inserted"/>
      <point x="548" y="155"/>
      <point x="454" y="117"/>
    </contour>
    <contour>
      <point x="311" y="223" type="line" name="sh04"/>
      <point x="342" y="223" type="line" name="ih01"/>
      <point x="342" y="528" type="line" name="sv04"/>
      <point x="311" y="528" type="line" name="sh05"/>
      <point x="311" y="541" type="line" name="iv02"/>
      <point x="410" y="541" type="line"/>
      <point x="424" y="541"/>
      <point x="458" y="532"/>
      <point x="473.0" y="521.5" type="qcurve" smooth="yes" name="inserted"/>
      <point x="488" y="511" name="mh01"/>
      <point x="508" y="479"/>
      <point x="508" y="456" type="qcurve" name="sh06"/>
      <point x="508" y="422"/>
      <point x="472" y="378"/>
      <point x="437" y="371" type="qcurve" name="ih02"/>
      <point x="506" y="223" type="line" name="sh08"/>
      <point x="547" y="223" type="line"/>
      <point x="547" y="210" type="line" name="sh11"/>
      <point x="499" y="210" type="line" name="sh10"/>
      <point x="423" y="370" type="line" name="sh09"/>
      <point x="418" y="369"/>
      <point x="406" y="368"/>
      <point x="401" y="368" type="qcurve"/>
      <point x="355" y="368" type="line" name="iv03"/>
      <point x="355" y="223" type="line" name="sh07"/>
      <point x="399" y="223" type="line" name="sh12"/>
      <point x="399" y="210" type="line"/>
      <point x="311" y="210" type="line" name="iv01"/>
    </contour>
    <contour>
      <point x="355" y="381" type="line" name="sh13"/>
      <point x="406" y="381" type="line"/>
      <point x="432" y="381"/>
      <point x="467" y="395"/>
      <point x="477.0" y="406.5" type="qcurve" smooth="yes" name="inserted"/>
      <point x="487" y="418"/>
      <point x="495" y="444"/>
      <point x="495" y="456" type="qcurve" name="sh14"/>
      <point x="495" y="485"/>
      <point x="445" y="528"/>
      <point x="407" y="528" type="qcurve"/>
      <point x="355" y="528" type="line" name="sv05"/>
    </contour>
  </outline>
</glyph>
<glyph name="degree" format="1">
  <advance width="282"/>
  <unicode hex="00B0"/>
  <outline>
    <contour>
      <point x="138" y="501" type="qcurve" name="sv02"/>
      <point x="163" y="501"/>
      <point x="197" y="534"/>
      <point x="197" y="560" type="qcurve" name="sh02"/>
      <point x="197" y="585"/>
      <point x="163" y="619"/>
      <point x="138" y="619" type="qcurve" name="sv03"/>
      <point x="113" y="619"/>
      <point x="78" y="585"/>
      <point x="78" y="560" type="qcurve" name="sh03"/>
      <point x="78" y="534"/>
      <point x="113" y="501"/>
    </contour>
    <contour>
      <point x="56" y="559" type="qcurve" name="ah01"/>
      <point x="56" y="594" name="fh01"/>
      <point x="103" y="641"/>
      <point x="138" y="641" type="qcurve" name="av01"/>
      <point x="172" y="641"/>
      <point x="219" y="594" name="fh02"/>
      <point x="219" y="559" type="qcurve" name="sh01"/>
      <point x="219" y="525" name="fh03"/>
      <point x="172" y="479"/>
      <point x="138" y="479" type="qcurve" name="sv01"/>
      <point x="103" y="479"/>
      <point x="56" y="525" name="fh04"/>
    </contour>
  </outline>
</glyph>
<glyph name="twosuperior" format="1">
  <advance width="398"/>
  <unicode hex="00B2"/>
  <outline>
    <contour>
      <point x="136" y="388" type="qcurve" name="sh03"/>
      <point x="289" y="388" type="line" name="sv02"/>
      <point x="289" y="442" type="line" name="sh05"/>
      <point x="303" y="442" type="line" name="sh04"/>
      <point x="303" y="375" type="line" name="sv01"/>
      <point x="102" y="375" type="line" name="sh02"/>
      <point x="134" y="406"/>
      <point x="193" y="465" name="iv01"/>
      <point x="216.0" y="493.0" type="qcurve" smooth="yes" name="inserted"/>
      <point x="239" y="521"/>
      <point x="267" y="574"/>
      <point x="267" y="597" type="qcurve" name="sh06"/>
      <point x="267" y="622"/>
      <point x="252" y="657" name="fh01"/>
      <point x="240.5" y="667.5" type="qcurve" smooth="yes" name="inserted"/>
      <point x="229" y="678"/>
      <point x="203" y="687"/>
      <point x="191" y="687" type="qcurve" name="sv03"/>
      <point x="168" y="687"/>
      <point x="138" y="670"/>
      <point x="129.5" y="658.0" type="qcurve" smooth="yes" name="inserted"/>
      <point x="121" y="646"/>
      <point x="114" y="617"/>
      <point x="114" y="605" type="qcurve" name="sh07"/>
      <point x="114.0" y="588.0" name="inserted"/>
      <point x="124.0" y="560.5"/>
      <point x="134" y="550" type="qcurve" name="sh08"/>
      <point x="125" y="542" type="line" name="sv04"/>
      <point x="114" y="553"/>
      <point x="100" y="585"/>
      <point x="100" y="605" type="qcurve" name="sh01"/>
      <point x="100" y="625"/>
      <point x="112" y="659"/>
      <point x="123.5" y="672.0" type="qcurve" smooth="yes" name="inserted"/>
      <point x="135" y="685" name="fh02"/>
      <point x="169" y="700"/>
      <point x="191" y="700" type="qcurve" name="at01"/>
      <point x="211" y="700"/>
      <point x="244" y="685"/>
      <point x="256.0" y="672.0" type="qcurve" smooth="yes" name="inserted"/>
      <point x="268" y="659" name="fh03"/>
      <point x="281" y="623"/>
      <point x="281" y="603" type="qcurve" name="ah01"/>
      <point x="281" y="575"/>
      <point x="254" y="520" name="fh04"/>
      <point x="233.0" y="493.5" type="qcurve" smooth="yes" name="inserted"/>
      <point x="212" y="467" name="iv02"/>
      <point x="161" y="414"/>
    </contour>
  </outline>
</glyph>
<glyph name="acute" format="1">
  <advance width="229"/>
  <unicode hex="00B4"/>
  <outline>
    <contour>
      <point x="100" y="479" type="line" name="ah01"/>
      <point x="123" y="512"/>
      <point x="167" y="579"/>
      <point x="190" y="612" type="qcurve" name="sv01"/>
      <point x="220" y="612" type="line" name="sh01"/>
      <point x="196" y="579"/>
      <point x="148" y="512"/>
      <point x="125" y="479" type="qcurve"/>
    </contour>
  </outline>
</glyph>
<glyph name="mu" format="1">
  <advance width="545"/>
  <unicode hex="00B5"/>
  <outline>
    <contour>
      <point x="314" y="375" type="line" name="at01"/>
      <point x="418" y="375" type="line" name="dh02"/>
      <point x="418" y="25" type="line"/>
      <point x="492" y="25" type="line" name="sh01"/>
      <point x="492" y="0" type="line" name="ab01"/>
      <point x="397" y="0" type="line"/>
      <point x="394" y="53" type="line"/>
      <point x="393" y="98" type="line" name="sh03"/>
      <point x="373" y="50"/>
      <point x="284" y="-7"/>
      <point x="229" y="-7" type="qcurve" name="ab02"/>
      <point x="197" y="-7"/>
      <point x="151" y="17" name="fh01"/>
      <point x="138" y="39" type="qcurve" name="iv01"/>
      <point x="138" y="-201" type="line" name="sh05"/>
      <point x="110" y="-201" type="line"/>
      <point x="110" y="348" type="line" name="dh01"/>
      <point x="34" y="348" type="line" name="sh06"/>
      <point x="34" y="375" type="line" name="at02"/>
      <point x="138" y="375" type="line" name="sh04"/>
      <point x="138" y="107" type="line"/>
      <point x="140" y="72"/>
      <point x="186" y="22"/>
      <point x="229" y="20" type="qcurve" name="sv01"/>
      <point x="261" y="20"/>
      <point x="320" y="41"/>
      <point x="342.0" y="60.0" type="qcurve" smooth="yes" name="inserted"/>
      <point x="364" y="79"/>
      <point x="390" y="132"/>
      <point x="390" y="163" type="qcurve"/>
      <point x="390" y="348" type="line" name="sh02"/>
      <point x="314" y="348" type="line" name="sh07"/>
    </contour>
  </outline>
</glyph>
<glyph name="ordmasculine" format="1">
  <advance width="469"/>
  <unicode hex="00BA"/>
  <outline>
    <contour>
      <point x="91" y="442" type="qcurve" name="ah01"/>
      <point x="91" y="470"/>
      <point x="113" y="522" name="fh01"/>
      <point x="132.0" y="541.5" type="qcurve" smooth="yes" name="inserted"/>
      <point x="151" y="561" name="fh02"/>
      <point x="202" y="583"/>
      <point x="232" y="583" type="qcurve" name="av01"/>
      <point x="261" y="583"/>
      <point x="313" y="561" name="fh03"/>
      <point x="332.0" y="541.5" type="qcurve" smooth="yes" name="inserted"/>
      <point x="351" y="522" name="fh04"/>
      <point x="374" y="470"/>
      <point x="374" y="442" type="qcurve" name="sh01"/>
      <point x="374" y="412" name="fh05"/>
      <point x="351" y="361" name="fh06"/>
      <point x="332.0" y="342.0" type="qcurve" smooth="yes" name="inserted"/>
      <point x="313" y="323" name="fh07"/>
      <point x="261" y="301"/>
      <point x="232" y="301" type="qcurve" name="sv01"/>
      <point x="202" y="301"/>
      <point x="151" y="323" name="fh08"/>
      <point x="132.0" y="342.0" type="qcurve" smooth="yes" name="inserted"/>
      <point x="113" y="361" name="fh09"/>
      <point x="91" y="412"/>
    </contour>
    <contour>
      <point x="111" y="442" type="qcurve" name="sh02"/>
      <point x="111" y="416"/>
      <point x="130" y="372"/>
      <point x="146.0" y="356.0" type="qcurve" smooth="yes" name="inserted"/>
      <point x="162" y="340"/>
      <point x="206" y="321"/>
      <point x="232" y="321" type="qcurve" name="sv02"/>
      <point x="256" y="321"/>
      <point x="301" y="340"/>
      <point x="317.0" y="356.0" type="qcurve" smooth="yes" name="inserted"/>
      <point x="333" y="372"/>
      <point x="353" y="416"/>
      <point x="353" y="442" type="qcurve" name="sh03"/>
      <point x="353" y="467"/>
      <point x="333" y="511"/>
      <point x="317.0" y="527.5" type="qcurve" smooth="yes" name="inserted"/>
      <point x="301" y="544"/>
      <point x="256" y="563"/>
      <point x="232" y="563" type="qcurve" name="sv03"/>
      <point x="206" y="563"/>
      <point x="162" y="544"/>
      <point x="146.0" y="527.5" type="qcurve" smooth="yes" name="inserted"/>
      <point x="130" y="511"/>
      <point x="111" y="467"/>
    </contour>
  </outline>
</glyph>
<glyph name="onequarter" format="1">
  <advance width="968"/>
  <unicode hex="00BC"/>
  <outline>
    <contour>
      <point x="287" y="-19" type="line" name="ih01"/>
      <point x="357" y="171"/>
      <point x="495" y="545"/>
      <point x="565" y="735" type="qcurve" name="sh02"/>
      <point x="593" y="735" type="line" name="sh01"/>
      <point x="523" y="545" name="fh01"/>
      <point x="385" y="171"/>
      <point x="315" y="-19" type="qcurve" name="sh03"/>
    </contour>
    <contour>
      <point x="695" y="20" type="line" name="sh04"/>
      <point x="753" y="20" type="line" name="ah02"/>
      <point x="753" y="136" type="line" name="iv01"/>
      <point x="501" y="136" type="line" name="sh06"/>
      <point x="773" y="490" type="line" name="sv01"/>
      <point x="773" y="156" type="line" name="sh08"/>
      <point x="845" y="156" type="line" name="sh09"/>
      <point x="845" y="136" type="line"/>
      <point x="773" y="136" type="line" name="sv02"/>
      <point x="773" y="20" type="line" name="sh07"/>
      <point x="835" y="20" type="line" name="sh10"/>
      <point x="835" y="0" type="line"/>
      <point x="695" y="0" type="line" name="ab01"/>
    </contour>
    <contour>
      <point x="753" y="429" type="line" name="sv03"/>
      <point x="545" y="156" type="line" name="sh11"/>
      <point x="753" y="156" type="line" name="sh05"/>
    </contour>
    <contour>
      <point x="152" y="253" type="line" name="sh12"/>
      <point x="209" y="253" type="line" name="ah01"/>
      <point x="209" y="676" type="line"/>
      <point x="135" y="676" type="line" name="sh13"/>
      <point x="135" y="695" type="line" name="av01"/>
      <point x="229" y="695" type="line"/>
      <point x="229" y="253" type="line" name="sh14"/>
      <point x="285" y="253" type="line" name="sh15"/>
      <point x="285" y="234" type="line"/>
      <point x="152" y="234" type="line" name="sv04"/>
    </contour>
  </outline>
</glyph>
<glyph name="onehalf" format="1">
  <advance width="1069"/>
  <unicode hex="00BD"/>
  <outline>
    <contour>
      <point x="138" y="253" type="line" name="sh01"/>
      <point x="195" y="253" type="line" name="ah01"/>
      <point x="195" y="676" type="line"/>
      <point x="121" y="676" type="line" name="sh02"/>
      <point x="121" y="695" type="line" name="av01"/>
      <point x="215" y="695" type="line"/>
      <point x="215" y="253" type="line" name="sh03"/>
      <point x="272" y="253" type="line" name="sh04"/>
      <point x="272" y="234" type="line"/>
      <point x="138" y="234" type="line" name="sv01"/>
    </contour>
    <contour>
      <point x="630" y="19" type="qcurve" name="sh06"/>
      <point x="849" y="19" type="line" name="sv02"/>
      <point x="849" y="96" type="line" name="sh09"/>
      <point x="868" y="96" type="line" name="sh08"/>
      <point x="868" y="0" type="line" name="ab01"/>
      <point x="581" y="0" type="line" name="sh05"/>
      <point x="627" y="44"/>
      <point x="712" y="129" name="iv01"/>
      <point x="744.5" y="169.0" type="qcurve" smooth="yes" name="inserted"/>
      <point x="777" y="209" name="fh01"/>
      <point x="817" y="284"/>
      <point x="817" y="318" type="qcurve" name="sh10"/>
      <point x="817" y="354"/>
      <point x="796" y="404" name="fh02"/>
      <point x="779.5" y="419.0" type="qcurve" smooth="yes" name="inserted"/>
      <point x="763" y="434"/>
      <point x="726" y="446"/>
      <point x="709" y="446" type="qcurve" name="sv04"/>
      <point x="676" y="446"/>
      <point x="632" y="422" name="fh03"/>
      <point x="620.0" y="405.0" type="qcurve" smooth="yes" name="inserted"/>
      <point x="608" y="388"/>
      <point x="598" y="347"/>
      <point x="598" y="330" type="qcurve" name="sh11"/>
      <point x="598.0" y="305.5" name="inserted"/>
      <point x="612.5" y="265.5"/>
      <point x="627" y="250" type="qcurve" name="sh12"/>
      <point x="614" y="239" type="line" name="sv05"/>
      <point x="598" y="255"/>
      <point x="579" y="301"/>
      <point x="579" y="330" type="qcurve" name="ah02"/>
      <point x="579" y="358"/>
      <point x="596" y="407" name="fh04"/>
      <point x="612.5" y="425.5" type="qcurve" smooth="yes" name="inserted"/>
      <point x="629" y="444" name="fh05"/>
      <point x="677" y="465"/>
      <point x="709" y="465" type="qcurve" name="sv03"/>
      <point x="737" y="465"/>
      <point x="784" y="444" name="fh06"/>
      <point x="801.0" y="425.5" type="qcurve" smooth="yes" name="inserted"/>
      <point x="818" y="407" name="fh07"/>
      <point x="837" y="356"/>
      <point x="837" y="326" type="qcurve" name="sh07"/>
      <point x="837" y="286"/>
      <point x="799" y="208"/>
      <point x="768.5" y="170.0" type="qcurve" smooth="yes" name="inserted"/>
      <point x="738" y="132" name="iv02"/>
      <point x="665" y="56" name="fv01"/>
    </contour>
    <contour>
      <point x="287" y="-19" type="line" name="ih01"/>
      <point x="357" y="171"/>
      <point x="495" y="545"/>
      <point x="565" y="735" type="qcurve" name="sh14"/>
      <point x="593" y="735" type="line" name="sh13"/>
      <point x="523" y="545" name="fh08"/>
      <point x="385" y="171"/>
      <point x="315" y="-19" type="qcurve" name="sh15"/>
    </contour>
  </outline>
</glyph>
<glyph name="threequarters" format="1">
  <advance width="1276"/>
  <unicode hex="00BE"/>
  <outline>
    <contour>
      <point x="217" y="479" type="qcurve" name="sh01"/>
      <point x="370" y="686" type="line" name="sh03"/>
      <point x="184" y="686" type="line" name="sv03"/>
      <point x="184" y="638" type="line" name="sh05"/>
      <point x="163" y="638" type="line" name="sh04"/>
      <point x="163" y="708" type="line" name="at01"/>
      <point x="411" y="708" type="line" name="sh02"/>
      <point x="266" y="516" type="line" name="sh06"/>
      <point x="299" y="515"/>
      <point x="357" y="491" name="fh01"/>
      <point x="379.0" y="470.0" type="qcurve" smooth="yes" name="inserted"/>
      <point x="401" y="449" name="fh02"/>
      <point x="426" y="392" name="fh03"/>
      <point x="426" y="359" type="qcurve" name="ah01"/>
      <point x="426" y="326"/>
      <point x="401" y="268" name="fh04"/>
      <point x="379.5" y="246.5" type="qcurve" smooth="yes" name="inserted"/>
      <point x="358" y="225" name="fh05"/>
      <point x="300" y="200"/>
      <point x="267" y="200" type="qcurve" name="sv01"/>
      <point x="232" y="200"/>
      <point x="173" y="228"/>
      <point x="150" y="252" type="qcurve" name="sh07"/>
      <point x="166" y="269" type="line" name="sv04"/>
      <point x="183" y="248"/>
      <point x="235" y="221"/>
      <point x="265" y="221" type="qcurve" name="sv05"/>
      <point x="294" y="221"/>
      <point x="345" y="243" name="fh06"/>
      <point x="364.0" y="262.0" type="qcurve" smooth="yes" name="inserted"/>
      <point x="383" y="281" name="fh07"/>
      <point x="406" y="331"/>
      <point x="406" y="359" type="qcurve" name="sh08"/>
      <point x="406" y="387"/>
      <point x="383" y="438" name="fh08"/>
      <point x="364.0" y="456.5" type="qcurve" smooth="yes" name="inserted"/>
      <point x="345" y="475" name="fh09"/>
      <point x="294" y="496"/>
      <point x="265" y="496" type="qcurve" name="sv02"/>
      <point x="252" y="496"/>
      <point x="228" y="487"/>
    </contour>
    <contour>
      <point x="457" y="-19" type="line" name="ih01"/>
      <point x="527" y="171"/>
      <point x="665" y="546"/>
      <point x="735" y="736" type="qcurve" name="sh11"/>
      <point x="763" y="736" type="line" name="sh10"/>
      <point x="693" y="546" name="fh10"/>
      <point x="555" y="171"/>
      <point x="485" y="-19" type="qcurve" name="sh12"/>
    </contour>
    <contour>
      <point x="894" y="20" type="line" name="sh13"/>
      <point x="951" y="20" type="line" name="ah02"/>
      <point x="951" y="136" type="line" name="sv07"/>
      <point x="700" y="136" type="line" name="sh14"/>
      <point x="972" y="490" type="line" name="sv06"/>
      <point x="972" y="156" type="line" name="sh15"/>
      <point x="1044" y="156" type="line" name="sh16"/>
      <point x="1044" y="136" type="line"/>
      <point x="972" y="136" type="line" name="iv01"/>
      <point x="972" y="20" type="line" name="sh09"/>
      <point x="1034" y="20" type="line" name="sh17"/>
      <point x="1034" y="0" type="line"/>
      <point x="894" y="0" type="line" name="ab01"/>
    </contour>
    <contour>
      <point x="951" y="429" type="line" name="mh01"/>
      <point x="743" y="156" type="line" name="sh18"/>
      <point x="951" y="156" type="line" name="sh19"/>
    </contour>
  </outline>
</glyph>
<glyph name="Aring" format="1">
  <advance width="820"/>
  <unicode hex="00C5"/>
  <outline>
    <contour>
      <point x="35" y="27" type="line" name="sh02"/>
      <point x="111" y="27" type="line" name="sh01"/>
      <point x="186" y="204" name="fh01"/>
      <point x="335" y="554"/>
      <point x="410" y="732" type="qcurve" name="ah01"/>
      <point x="485" y="554" name="fh02"/>
      <point x="634" y="204" name="fh03"/>
      <point x="709" y="27" type="qcurve" name="sh03"/>
      <point x="785" y="27" type="line" name="sh04"/>
      <point x="785" y="0" type="line"/>
      <point x="601" y="0" type="line" name="sv01"/>
      <point x="601" y="27" type="line" name="sh06"/>
      <point x="680" y="27" type="line" name="sh05"/>
      <point x="650" y="97" name="fh04"/>
      <point x="591" y="237" name="fh05"/>
      <point x="561" y="308" type="qcurve" name="ih01"/>
      <point x="259" y="308" type="line" name="ih02"/>
      <point x="229" y="237" name="fh06"/>
      <point x="170" y="97" name="fh07"/>
      <point x="140" y="27" type="qcurve" name="sh08"/>
      <point x="219" y="27" type="line" name="sh09"/>
      <point x="219" y="0" type="line" name="ab01"/>
      <point x="35" y="0" type="line"/>
    </contour>
    <contour>
      <point x="419" y="643" type="line"/>
      <point x="410" y="670" type="line" name="sh07"/>
      <point x="409" y="668"/>
      <point x="407" y="660" name="fh08"/>
      <point x="405" y="655" type="qcurve" name="fh09"/>
      <point x="401" y="643" type="line" name="fh10"/>
      <point x="374" y="573" name="fh11"/>
      <point x="304" y="413"/>
      <point x="271" y="335" type="qcurve" name="ih03"/>
      <point x="549" y="335" type="line" name="ih04"/>
    </contour>
    <contour>
      <point x="365" y="834" type="qcurve" name="sh10"/>
      <point x="365" y="816"/>
      <point x="392" y="789"/>
      <point x="411" y="789" type="qcurve" name="sv03"/>
      <point x="429" y="789"/>
      <point x="456" y="816"/>
      <point x="456" y="834" type="qcurve" name="sh12"/>
      <point x="456" y="853"/>
      <point x="429" y="880"/>
      <point x="411" y="880" type="qcurve" name="sv05"/>
      <point x="392" y="880"/>
      <point x="365" y="853"/>
    </contour>
    <contour>
      <point x="343" y="835" type="qcurve" name="ah02"/>
      <point x="343" y="864"/>
      <point x="382" y="902" name="fh12"/>
      <point x="411" y="902" type="qcurve" name="sv04"/>
      <point x="440" y="902" name="fh13"/>
      <point x="478" y="864" name="fh14"/>
      <point x="478" y="835" type="qcurve" name="sh11"/>
      <point x="478" y="806" name="fh15"/>
      <point x="440" y="767"/>
      <point x="411" y="767" type="qcurve" name="sv02"/>
      <point x="382" y="767"/>
      <point x="343" y="806" name="fh16"/>
    </contour>
  </outline>
</glyph>
<glyph name="AE" format="1">
  <advance width="775"/>
  <unicode hex="00C6"/>
  <outline>
    <contour>
      <point x="699" y="546" type="line" name="sv01"/>
      <point x="699" y="673" type="line"/>
      <point x="428" y="673" type="line" name="sv02"/>
      <point x="428" y="366" type="line" name="sh02"/>
      <point x="687" y="366" type="line"/>
      <point x="687" y="339" type="line" name="ih01"/>
      <point x="428" y="339" type="line" name="sv03"/>
      <point x="428" y="27" type="line" name="sh01"/>
      <point x="713" y="27" type="line"/>
      <point x="713" y="154" type="line" name="sh03"/>
      <point x="740" y="154" type="line" name="dh02"/>
      <point x="740" y="0" type="line"/>
      <point x="400" y="0" type="line" name="dh01"/>
      <point x="400" y="306" type="line"/>
      <point x="259" y="306" type="line" name="ih02"/>
      <point x="230" y="235" name="fh01"/>
      <point x="171" y="96"/>
      <point x="141" y="27" type="qcurve" name="sh05"/>
      <point x="219" y="27" type="line" name="sh07"/>
      <point x="219" y="0" type="line" name="ab01"/>
      <point x="35" y="0" type="line"/>
      <point x="35" y="27" type="line" name="sh08"/>
      <point x="113" y="27" type="line" name="sh04"/>
      <point x="185" y="196"/>
      <point x="325" y="530"/>
      <point x="397" y="700" type="qcurve" name="sh09"/>
      <point x="726" y="700" type="line"/>
      <point x="726" y="546" type="line" name="sh10"/>
    </contour>
    <contour>
      <point x="400" y="333" type="line" name="sh06"/>
      <point x="400" y="642" type="line" name="sv04"/>
      <point x="371" y="563"/>
      <point x="303" y="411" name="fh02"/>
      <point x="271" y="333" type="qcurve" name="ih03"/>
    </contour>
  </outline>
</glyph>
<glyph name="Ccedilla" format="1">
  <advance width="602"/>
  <unicode hex="00C7"/>
  <outline>
    <contour>
      <point x="548" y="474" type="line" name="sh01"/>
      <point x="548" y="641" type="line" name="fh01"/>
      <point x="512.5" y="661.0" name="inserted"/>
      <point x="434.5" y="681.0"/>
      <point x="392" y="681" type="qcurve" name="sv01"/>
      <point x="324" y="681"/>
      <point x="204" y="628" name="fh02"/>
      <point x="159.5" y="583.0" type="qcurve" smooth="yes" name="inserted"/>
      <point x="115" y="538" name="fh03"/>
      <point x="63" y="417"/>
      <point x="63" y="348" type="qcurve" name="sh02"/>
      <point x="63" y="280" name="fh04"/>
      <point x="115" y="160" name="fh05"/>
      <point x="159.0" y="115.5" type="qcurve" smooth="yes" name="inserted"/>
      <point x="203" y="71" name="fh06"/>
      <point x="322" y="19" name="fh07"/>
      <point x="390" y="19" type="qcurve" name="sv02"/>
      <point x="436" y="19"/>
      <point x="520" y="43"/>
      <point x="558" y="65" type="qcurve" name="sv03"/>
      <point x="574" y="42" type="line" name="sh03"/>
      <point x="535" y="19"/>
      <point x="445" y="-7"/>
      <point x="395" y="-8" type="qcurve" name="sh04"/>
      <point x="395.0" y="-12.5" name="inserted"/>
      <point x="396.0" y="-19.0"/>
      <point x="397" y="-21" type="qcurve"/>
      <point x="402" y="-39"/>
      <point x="425" y="-54"/>
      <point x="436" y="-61" type="qcurve"/>
      <point x="459" y="-76"/>
      <point x="477" y="-114"/>
      <point x="477" y="-130" type="qcurve" name="sh05"/>
      <point x="477" y="-180" name="fh08"/>
      <point x="426" y="-228" name="fh09"/>
      <point x="389" y="-228" type="qcurve" name="sv04"/>
      <point x="361" y="-228"/>
      <point x="314" y="-198"/>
      <point x="303" y="-167" type="qcurve" name="sh06"/>
      <point x="325" y="-159" type="line" name="sh07"/>
      <point x="330" y="-179"/>
      <point x="364" y="-205"/>
      <point x="388" y="-205" type="qcurve" name="sv05"/>
      <point x="417" y="-205" name="fh10"/>
      <point x="454" y="-165"/>
      <point x="454" y="-136" type="qcurve" name="sh08"/>
      <point x="454" y="-110"/>
      <point x="429" y="-81"/>
      <point x="413.5" y="-70.5" type="qcurve" smooth="yes" name="inserted"/>
      <point x="398" y="-60"/>
      <point x="373" y="-39"/>
      <point x="373" y="-20" type="qcurve"/>
      <point x="373" y="-7" type="line" name="ih01"/>
      <point x="302" y="-4"/>
      <point x="179" y="55" name="fh11"/>
      <point x="133.5" y="103.0" type="qcurve" smooth="yes" name="inserted"/>
      <point x="88" y="151" name="fh12"/>
      <point x="35" y="277"/>
      <point x="35" y="349" type="qcurve" name="dh01"/>
      <point x="35" y="423"/>
      <point x="91" y="554" name="fh13"/>
      <point x="139.5" y="602.5" type="qcurve" smooth="yes" name="inserted"/>
      <point x="188" y="651"/>
      <point x="318" y="708"/>
      <point x="392" y="708" type="qcurve" name="at01"/>
      <point x="443" y="708"/>
      <point x="534" y="682"/>
      <point x="575" y="658" type="qcurve"/>
      <point x="575" y="474" type="line" name="dh02"/>
    </contour>
  </outline>
</glyph>
<glyph name="multiply" format="1">
  <advance width="500"/>
  <unicode hex="00D7"/>
  <outline>
    <contour>
      <point x="381" y="0" type="line" name="sv01"/>
      <point x="351" y="29"/>
      <point x="292" y="89"/>
      <point x="263" y="118" type="qcurve" name="iv01"/>
      <point x="233" y="89"/>
      <point x="175" y="29"/>
      <point x="146" y="0" type="qcurve" name="ab01"/>
      <point x="140.5" y="4.5" name="inserted"/>
      <point x="130.5" y="14.5"/>
      <point x="126" y="20" type="qcurve" name="ah01"/>
      <point x="155" y="49"/>
      <point x="214" y="108"/>
      <point x="243" y="138" type="qcurve" name="ih01"/>
      <point x="127" y="254" type="line" name="sh02"/>
      <point x="146" y="274" type="line" name="sv02"/>
      <point x="263" y="157" type="line" name="iv02"/>
      <point x="292" y="187"/>
      <point x="352" y="245"/>
      <point x="381" y="275" type="qcurve" name="sv03"/>
      <point x="386" y="270"/>
      <point x="395" y="260"/>
      <point x="400" y="255" type="qcurve" name="sh03"/>
      <point x="283" y="138" type="line" name="ih02"/>
      <point x="312" y="109"/>
      <point x="371" y="49"/>
      <point x="401" y="20" type="qcurve" name="sh01"/>
    </contour>
  </outline>
</glyph>
<glyph name="Oslash" format="1">
  <advance width="786"/>
  <unicode hex="00D8"/>
  <outline>
    <contour>
      <point x="63" y="348" type="qcurve" name="sh01"/>
      <point x="63" y="276"/>
      <point x="117" y="154" name="fh01"/>
      <point x="165" y="109" type="qcurve" name="ih01"/>
      <point x="272" y="237" name="mh01"/>
      <point x="483" y="486"/>
      <point x="589" y="614" type="qcurve" name="ih02"/>
      <point x="547" y="646" name="fh02"/>
      <point x="447" y="681"/>
      <point x="392" y="681" type="qcurve" name="sv02"/>
      <point x="324" y="681" name="fv01"/>
      <point x="204" y="628" name="fh03"/>
      <point x="159.5" y="583.0" type="qcurve" smooth="yes" name="inserted"/>
      <point x="115" y="538" name="fh04"/>
      <point x="63" y="417"/>
    </contour>
    <contour>
      <point x="390" y="19" type="qcurve" name="sv01"/>
      <point x="458" y="19"/>
      <point x="579" y="71" name="fh05"/>
      <point x="624.5" y="116.0" type="qcurve" smooth="yes" name="inserted"/>
      <point x="670" y="161" name="fh06"/>
      <point x="723" y="281" name="fh07"/>
      <point x="723" y="349" type="qcurve" name="sh02"/>
      <point x="723" y="424"/>
      <point x="661" y="552" name="fh08"/>
      <point x="608" y="598" type="qcurve" name="ih03"/>
      <point x="502" y="471" name="mh02"/>
      <point x="290" y="220"/>
      <point x="184" y="93" type="qcurve" name="ih04"/>
      <point x="227" y="58" name="fh09"/>
      <point x="330" y="19"/>
    </contour>
    <contour>
      <point x="35" y="349" type="qcurve" name="dh01"/>
      <point x="35" y="423"/>
      <point x="91" y="554" name="fh10"/>
      <point x="139.5" y="602.5" type="qcurve" smooth="yes" name="inserted"/>
      <point x="188" y="651" name="fh11"/>
      <point x="318" y="708"/>
      <point x="392" y="708" type="qcurve" name="at01"/>
      <point x="453" y="708"/>
      <point x="563" y="670" name="fh12"/>
      <point x="608" y="635" type="qcurve" name="ih05"/>
      <point x="624" y="654"/>
      <point x="654" y="691"/>
      <point x="670" y="710" type="qcurve" name="sv03"/>
      <point x="675" y="705"/>
      <point x="684" y="698"/>
      <point x="689" y="694" type="qcurve" name="sh03"/>
      <point x="673" y="675"/>
      <point x="643" y="639" name="fh13"/>
      <point x="627" y="620" type="qcurve" name="ih06"/>
      <point x="684" y="570" name="fh14"/>
      <point x="751" y="430"/>
      <point x="751" y="349" type="qcurve" name="dh02"/>
      <point x="751" y="275"/>
      <point x="694" y="145" name="fh15"/>
      <point x="645.5" y="96.5" type="qcurve" smooth="yes" name="inserted"/>
      <point x="597" y="48" name="fh16"/>
      <point x="466" y="-8"/>
      <point x="392" y="-8" type="qcurve" name="ab01"/>
      <point x="328" y="-8"/>
      <point x="213" y="34" name="fh17"/>
      <point x="167" y="72" type="qcurve" name="ih07"/>
      <point x="150" y="52"/>
      <point x="115" y="10"/>
      <point x="98" y="-10" type="qcurve" name="sv04"/>
      <point x="93" y="-5"/>
      <point x="84" y="2"/>
      <point x="79" y="7" type="qcurve" name="sh04"/>
      <point x="97" y="27"/>
      <point x="131" y="69"/>
      <point x="148" y="89" type="qcurve" name="ih08"/>
      <point x="95" y="137" name="fh18"/>
      <point x="35" y="271"/>
    </contour>
  </outline>
</glyph>
<glyph name="aring" format="1">
  <advance width="535"/>
  <unicode hex="00E5"/>
  <outline>
    <contour>
      <point x="35" y="188" type="qcurve" name="dh01"/>
      <point x="35" y="228"/>
      <point x="65" y="299" name="fh01"/>
      <point x="91.5" y="325.5" type="qcurve" smooth="yes" name="inserted"/>
      <point x="118" y="352" name="fh02"/>
      <point x="189" y="383" name="fh03"/>
      <point x="230" y="383" type="qcurve" name="at01"/>
      <point x="260" y="383"/>
      <point x="314" y="366"/>
      <point x="336.5" y="351.0" type="qcurve" smooth="yes" name="inserted"/>
      <point x="359" y="336"/>
      <point x="392" y="296"/>
      <point x="401" y="274" type="qcurve" name="iv01"/>
      <point x="401" y="299"/>
      <point x="403" y="349"/>
      <point x="405" y="375" type="qcurve" name="sh02"/>
      <point x="426" y="375" type="line" name="at02"/>
      <point x="426" y="27" type="line" name="dh02"/>
      <point x="500" y="27" type="line" name="sh03"/>
      <point x="500" y="0" type="line" name="ab02"/>
      <point x="401" y="0" type="line" name="sh01"/>
      <point x="401" y="47" type="line"/>
      <point x="401" y="102" type="line" name="iv02"/>
      <point x="392" y="80"/>
      <point x="360" y="40"/>
      <point x="337.5" y="25.0" type="qcurve" smooth="yes" name="inserted"/>
      <point x="315" y="10"/>
      <point x="261" y="-7"/>
      <point x="230" y="-7" type="qcurve" name="ab01"/>
      <point x="189" y="-7"/>
      <point x="118" y="24" name="fh04"/>
      <point x="91.5" y="50.0" type="qcurve" smooth="yes" name="inserted"/>
      <point x="65" y="76" name="fh05"/>
      <point x="35" y="147"/>
    </contour>
    <contour>
      <point x="63" y="188" type="qcurve" name="sh04"/>
      <point x="63" y="153"/>
      <point x="89" y="92" name="fh06"/>
      <point x="111.5" y="69.5" type="qcurve" smooth="yes" name="inserted"/>
      <point x="134" y="47" name="fh07"/>
      <point x="195" y="21"/>
      <point x="230" y="21" type="qcurve" name="sv01"/>
      <point x="265" y="21"/>
      <point x="327" y="47" name="fv01"/>
      <point x="350.0" y="69.5" type="qcurve" smooth="yes" name="inserted"/>
      <point x="373" y="92" name="fh08"/>
      <point x="399" y="153"/>
      <point x="399" y="188" type="qcurve" name="sh05"/>
      <point x="399" y="223"/>
      <point x="373" y="284" name="fh09"/>
      <point x="350.0" y="307.0" type="qcurve" smooth="yes" name="inserted"/>
      <point x="327" y="330"/>
      <point x="265" y="356"/>
      <point x="230" y="356" type="qcurve" name="sv02"/>
      <point x="195" y="356"/>
      <point x="134" y="330" name="fh10"/>
      <point x="111.5" y="307.0" type="qcurve" smooth="yes" name="inserted"/>
      <point x="89" y="284" name="fh11"/>
      <point x="63" y="223"/>
    </contour>
    <contour>
      <point x="199" y="540" type="qcurve" name="sh06"/>
      <point x="199" y="521"/>
      <point x="227" y="494"/>
      <point x="245" y="494" type="qcurve" name="sv03"/>
      <point x="264" y="494"/>
      <point x="291" y="521"/>
      <point x="291" y="540" type="qcurve" name="sh08"/>
      <point x="291" y="558"/>
      <point x="264" y="586"/>
      <point x="245" y="586" type="qcurve" name="sv05"/>
      <point x="227" y="586"/>
      <point x="199" y="558"/>
    </contour>
    <contour>
      <point x="177" y="540" type="qcurve" name="ih01"/>
      <point x="177" y="569" name="fh12"/>
      <point x="216" y="608" name="fh13"/>
      <point x="245" y="608" type="qcurve" name="sv04"/>
      <point x="274" y="608" name="fv02"/>
      <point x="313" y="569" name="fh14"/>
      <point x="313" y="540" type="qcurve" name="sh07"/>
      <point x="313" y="511" name="fh15"/>
      <point x="274" y="472" name="fv03"/>
      <point x="245" y="472" type="qcurve" name="av01"/>
      <point x="216" y="472" name="fh16"/>
      <point x="177" y="511" name="fh17"/>
    </contour>
  </outline>
</glyph>
<glyph name="ae" format="1">
  <advance width="587"/>
  <unicode hex="00E6"/>
  <outline>
    <contour>
      <point x="347" y="241" type="qcurve"/>
      <point x="347" y="197" type="line" name="sh01"/>
      <point x="389" y="214"/>
      <point x="474" y="247"/>
      <point x="516" y="264" type="qcurve" name="sh04"/>
      <point x="497" y="304"/>
      <point x="426" y="354"/>
      <point x="381" y="354" type="qcurve" name="sv01"/>
      <point x="365.0" y="354.0" name="inserted"/>
      <point x="333.5" y="347.5"/>
      <point x="318" y="341" type="qcurve" name="ih01"/>
      <point x="335" y="327" name="fh01"/>
      <point x="347" y="277"/>
    </contour>
    <contour>
      <point x="319" y="168" type="line" name="sh02"/>
      <point x="233" y="168" type="line" name="sv02"/>
      <point x="217" y="168"/>
      <point x="160" y="168"/>
      <point x="132.0" y="162.5" type="qcurve" smooth="yes" name="inserted"/>
      <point x="104" y="157"/>
      <point x="63" y="128"/>
      <point x="63" y="99" type="qcurve" name="sh05"/>
      <point x="63" y="73"/>
      <point x="88" y="41" name="fh02"/>
      <point x="107.5" y="32.0" type="qcurve" smooth="yes" name="inserted"/>
      <point x="127" y="23"/>
      <point x="173" y="17"/>
      <point x="194" y="17" type="qcurve" name="sv03"/>
      <point x="216" y="17"/>
      <point x="261" y="25"/>
      <point x="279.0" y="34.5" type="qcurve" smooth="yes" name="inserted"/>
      <point x="297" y="44" name="fv01"/>
      <point x="319" y="79"/>
      <point x="319" y="106" type="qcurve"/>
    </contour>
    <contour>
      <point x="83" y="320" type="qcurve" name="sv04"/>
      <point x="78" y="325"/>
      <point x="69" y="336"/>
      <point x="64" y="341" type="qcurve" name="sh06"/>
      <point x="74" y="349"/>
      <point x="104" y="364"/>
      <point x="121.5" y="369.5" type="qcurve" smooth="yes" name="inserted"/>
      <point x="139" y="375"/>
      <point x="175" y="381"/>
      <point x="192" y="381" type="qcurve" name="at01"/>
      <point x="228" y="381"/>
      <point x="281" y="373"/>
      <point x="299" y="363" type="qcurve" name="ih02"/>
      <point x="317.0" y="372.0" name="inserted"/>
      <point x="358.0" y="381.0"/>
      <point x="381" y="381" type="qcurve" name="at02"/>
      <point x="441" y="381" name="fh03"/>
      <point x="532" y="308"/>
      <point x="552" y="249" type="qcurve" name="sh03"/>
      <point x="501" y="229"/>
      <point x="398" y="188"/>
      <point x="347" y="167" type="qcurve" name="dh02"/>
      <point x="347" y="128" type="line"/>
      <point x="347" y="94"/>
      <point x="333" y="49" name="fh04"/>
      <point x="313" y="32" type="qcurve" name="ih03"/>
      <point x="329" y="26"/>
      <point x="362" y="19"/>
      <point x="381" y="19" type="qcurve" name="sv05"/>
      <point x="415" y="19"/>
      <point x="473" y="44"/>
      <point x="496" y="65" type="qcurve" name="sv06"/>
      <point x="500" y="59"/>
      <point x="508" y="49"/>
      <point x="513" y="44" type="qcurve" name="ih04"/>
      <point x="487" y="20"/>
      <point x="420" y="-8"/>
      <point x="381" y="-8" type="qcurve" name="ab02"/>
      <point x="356.5" y="-8.0" name="inserted"/>
      <point x="313.0" y="1.5"/>
      <point x="294" y="11" type="qcurve" name="ih05"/>
      <point x="276.0" y="0.5" name="inserted"/>
      <point x="225.5" y="-10.0"/>
      <point x="193" y="-10" type="qcurve" name="ab01"/>
      <point x="157" y="-10"/>
      <point x="99" y="0"/>
      <point x="78.5" y="13.0" type="qcurve" smooth="yes" name="inserted"/>
      <point x="58" y="26" name="fh05"/>
      <point x="35" y="67"/>
      <point x="35" y="99" type="qcurve" name="dh01"/>
      <point x="35" y="127"/>
      <point x="60" y="164" name="fh06"/>
      <point x="81.0" y="175.5" type="qcurve" smooth="yes" name="inserted"/>
      <point x="102" y="187"/>
      <point x="156" y="197"/>
      <point x="185" y="197" type="qcurve" name="iv01"/>
      <point x="319" y="197" type="line" name="sh07"/>
      <point x="319" y="243" type="line"/>
      <point x="319" y="271"/>
      <point x="310" y="312"/>
      <point x="296.5" y="326.0" type="qcurve" smooth="yes" name="inserted"/>
      <point x="283" y="340"/>
      <point x="233" y="354"/>
      <point x="191" y="354" type="qcurve" name="sv07"/>
      <point x="177" y="354"/>
      <point x="146" y="348"/>
      <point x="131.0" y="343.5" type="qcurve" smooth="yes" name="inserted"/>
      <point x="116" y="339"/>
      <point x="91" y="326"/>
    </contour>
  </outline>
</glyph>
<glyph name="ccedilla" format="1">
  <advance width="389"/>
  <unicode hex="00E7"/>
  <outline>
    <contour>
      <point x="336" y="57" type="qcurve" name="sv01"/>
      <point x="354" y="36" type="line" name="sh01"/>
      <point x="350" y="33"/>
      <point x="316" y="16"/>
      <point x="296.0" y="7.5" type="qcurve" smooth="yes" name="inserted"/>
      <point x="276" y="-1"/>
      <point x="242" y="-13"/>
      <point x="238" y="-10" type="qcurve" name="sh02"/>
      <point x="239" y="-33"/>
      <point x="267" y="-53"/>
      <point x="279" y="-61" type="qcurve"/>
      <point x="302" y="-76"/>
      <point x="321" y="-114"/>
      <point x="321" y="-130" type="qcurve" name="sh03"/>
      <point x="321" y="-178" name="fh01"/>
      <point x="273" y="-225"/>
      <point x="240" y="-227" type="qcurve" name="sv02"/>
      <point x="231.5" y="-227.5" name="inserted"/>
      <point x="214.0" y="-226.0"/>
      <point x="205" y="-224" type="qcurve"/>
      <point x="185" y="-218"/>
      <point x="155" y="-190"/>
      <point x="147" y="-167" type="qcurve" name="sh04"/>
      <point x="168" y="-159" type="line" name="sh05"/>
      <point x="174" y="-179"/>
      <point x="208" y="-205"/>
      <point x="231" y="-205" type="qcurve" name="sv03"/>
      <point x="260" y="-205"/>
      <point x="297" y="-165" name="fv01"/>
      <point x="297" y="-136" type="qcurve" name="sh06"/>
      <point x="297" y="-110"/>
      <point x="272" y="-81"/>
      <point x="257.0" y="-70.5" type="qcurve" smooth="yes" name="inserted"/>
      <point x="242" y="-60"/>
      <point x="217" y="-39"/>
      <point x="217" y="-20" type="qcurve"/>
      <point x="217" y="-5" type="line" name="ih01"/>
      <point x="179" y="-3"/>
      <point x="112" y="29"/>
      <point x="87.5" y="55.0" type="qcurve" smooth="yes" name="inserted"/>
      <point x="63" y="81" name="fh02"/>
      <point x="35" y="149"/>
      <point x="35" y="188" type="qcurve" name="dh01"/>
      <point x="35" y="228"/>
      <point x="66" y="300" name="fh03"/>
      <point x="92.0" y="326.0" type="qcurve" smooth="yes" name="inserted"/>
      <point x="118" y="352" name="fh04"/>
      <point x="189" y="383"/>
      <point x="230" y="383" type="qcurve" name="at01"/>
      <point x="266" y="383"/>
      <point x="329" y="360"/>
      <point x="354" y="340" type="qcurve"/>
      <point x="354" y="247" type="line" name="dh02"/>
      <point x="328" y="247" type="line" name="sh07"/>
      <point x="328" y="324" type="line"/>
      <point x="307" y="339" name="fh05"/>
      <point x="258" y="356"/>
      <point x="230" y="356" type="qcurve" name="sv04"/>
      <point x="195" y="356"/>
      <point x="134" y="330" name="fh06"/>
      <point x="111.5" y="307.0" type="qcurve" smooth="yes" name="inserted"/>
      <point x="89" y="284" name="fh07"/>
      <point x="63" y="223"/>
      <point x="63" y="188" type="qcurve" name="sh08"/>
      <point x="63" y="153"/>
      <point x="89" y="92" name="fh08"/>
      <point x="111.5" y="69.5" type="qcurve" smooth="yes" name="inserted"/>
      <point x="134" y="47" name="fh09"/>
      <point x="195" y="21"/>
      <point x="230" y="21" type="qcurve" name="sv05"/>
      <point x="261" y="21"/>
      <point x="314" y="40"/>
    </contour>
  </outline>
</glyph>
<glyph name="igrave" format="1">
  <advance width="254"/>
  <unicode hex="00EC"/>
  <outline>
    <contour>
      <point x="35" y="27" type="line" name="sh01"/>
      <point x="115" y="27" type="line" name="dh01"/>
      <point x="115" y="348" type="line"/>
      <point x="35" y="348" type="line" name="sh02"/>
      <point x="35" y="375" type="line" name="at01"/>
      <point x="142" y="375" type="line"/>
      <point x="142" y="27" type="line" name="dh02"/>
      <point x="219" y="27" type="line" name="sh03"/>
      <point x="219" y="0" type="line"/>
      <point x="35" y="0" type="line" name="ab01"/>
    </contour>
    <contour>
      <point x="49" y="612" type="line"/>
      <point x="72" y="579"/>
      <point x="116" y="512"/>
      <point x="139" y="479" type="qcurve" name="sh04"/>
      <point x="115" y="479" type="line" name="av01"/>
      <point x="91" y="512"/>
      <point x="43" y="579"/>
      <point x="20" y="612" type="qcurve" name="ah01"/>
    </contour>
  </outline>
</glyph>
<glyph name="iacute" format="1">
  <advance width="254"/>
  <unicode hex="00ED"/>
  <outline>
    <contour>
      <point x="35" y="27" type="line" name="sh01"/>
      <point x="115" y="27" type="line" name="dh01"/>
      <point x="115" y="348" type="line"/>
      <point x="35" y="348" type="line" name="sh02"/>
      <point x="35" y="375" type="line" name="at01"/>
      <point x="142" y="375" type="line"/>
      <point x="142" y="27" type="line" name="dh02"/>
      <point x="219" y="27" type="line" name="sh03"/>
      <point x="219" y="0" type="line"/>
      <point x="35" y="0" type="line" name="ab01"/>
    </contour>
    <contour>
      <point x="118" y="479" type="line" name="ah01"/>
      <point x="141" y="512"/>
      <point x="185" y="579"/>
      <point x="208" y="612" type="qcurve" name="sv01"/>
      <point x="238" y="612" type="line" name="sh04"/>
      <point x="214" y="579"/>
      <point x="166" y="512"/>
      <point x="143" y="479" type="qcurve"/>
    </contour>
  </outline>
</glyph>
<glyph name="icircumflex" format="1">
  <advance width="254"/>
  <unicode hex="00EE"/>
  <outline>
    <contour>
      <point x="35" y="27" type="line" name="sh01"/>
      <point x="115" y="27" type="line" name="dh01"/>
      <point x="115" y="348" type="line"/>
      <point x="35" y="348" type="line" name="sh02"/>
      <point x="35" y="375" type="line" name="at01"/>
      <point x="142" y="375" type="line"/>
      <point x="142" y="27" type="line" name="dh02"/>
      <point x="219" y="27" type="line" name="sh03"/>
      <point x="219" y="0" type="line"/>
      <point x="35" y="0" type="line" name="ab01"/>
    </contour>
    <contour>
      <point x="129" y="660" type="qcurve" name="sv01"/>
      <point x="159" y="615"/>
      <point x="219" y="524"/>
      <point x="249" y="479" type="qcurve" name="sh04"/>
      <point x="224" y="479" type="line" name="sh05"/>
      <point x="200" y="514"/>
      <point x="153" y="582"/>
      <point x="129" y="617" type="qcurve" name="sv02"/>
      <point x="105" y="582" name="fv01"/>
      <point x="58" y="514"/>
      <point x="34" y="479" type="qcurve" name="sh06"/>
      <point x="9" y="479" type="line" name="ah01"/>
      <point x="39" y="524"/>
      <point x="99" y="615"/>
    </contour>
  </outline>
</glyph>
<glyph name="idieresis" format="1">
  <advance width="254"/>
  <unicode hex="00EF"/>
  <outline>
    <contour>
      <point x="35" y="27" type="line" name="sh01"/>
      <point x="115" y="27" type="line" name="dh01"/>
      <point x="115" y="348" type="line"/>
      <point x="35" y="348" type="line" name="sh02"/>
      <point x="35" y="375" type="line" name="at01"/>
      <point x="142" y="375" type="line"/>
      <point x="142" y="27" type="line" name="dh02"/>
      <point x="219" y="27" type="line" name="sh03"/>
      <point x="219" y="0" type="line"/>
      <point x="35" y="0" type="line" name="ab01"/>
    </contour>
    <contour>
      <point x="186" y="504" type="qcurve" name="sh04"/>
      <point x="186" y="515"/>
      <point x="201" y="531"/>
      <point x="212" y="531" type="qcurve" name="sv02"/>
      <point x="223" y="531"/>
      <point x="238" y="515"/>
      <point x="238" y="504" type="qcurve" name="sh05"/>
      <point x="238" y="493"/>
      <point x="223" y="478"/>
      <point x="212" y="478" type="qcurve" name="sv03"/>
      <point x="201" y="478"/>
      <point x="186" y="493"/>
    </contour>
    <contour>
      <point x="20" y="504" type="qcurve" name="ah01"/>
      <point x="20" y="515"/>
      <point x="36" y="531"/>
      <point x="47" y="531" type="qcurve" name="sv01"/>
      <point x="58" y="531"/>
      <point x="73" y="515"/>
      <point x="73" y="504" type="qcurve" name="sh06"/>
      <point x="73" y="493"/>
      <point x="58" y="478"/>
      <point x="47" y="478" type="qcurve" name="av01"/>
      <point x="36" y="478"/>
      <point x="20" y="493"/>
    </contour>
  </outline>
</glyph>
<glyph name="divide" format="1">
  <advance width="501"/>
  <unicode hex="00F7"/>
  <outline>
    <contour>
      <point x="428" y="209" type="line"/>
      <point x="68" y="209" type="line" name="dv01"/>
      <point x="68" y="237" type="line" name="sh01"/>
      <point x="428" y="237" type="line" name="sh02"/>
    </contour>
    <contour>
      <point x="225" y="347" type="qcurve" name="dh01"/>
      <point x="225" y="358"/>
      <point x="240" y="374"/>
      <point x="251" y="374" type="qcurve" name="sv02"/>
      <point x="262" y="374"/>
      <point x="277" y="358"/>
      <point x="277" y="347" type="qcurve" name="dh02"/>
      <point x="277" y="336"/>
      <point x="262" y="321"/>
      <point x="251" y="321" type="qcurve" name="sv01"/>
      <point x="240" y="321"/>
      <point x="225" y="336"/>
    </contour>
    <contour>
      <point x="225" y="97" type="qcurve" name="sh03"/>
      <point x="225" y="108"/>
      <point x="240" y="124"/>
      <point x="251" y="124" type="qcurve" name="sv03"/>
      <point x="262" y="124"/>
      <point x="277" y="108"/>
      <point x="277" y="97" type="qcurve" name="sh04"/>
      <point x="277" y="86"/>
      <point x="262" y="71"/>
      <point x="251" y="71" type="qcurve" name="sv04"/>
      <point x="240" y="71"/>
      <point x="225" y="86"/>
    </contour>
  </outline>
</glyph>
<glyph name="oslash" format="1">
  <advance width="461"/>
  <unicode hex="00F8"/>
  <outline>
    <contour>
      <point x="63" y="188" type="qcurve" name="sh01"/>
      <point x="63" y="153"/>
      <point x="88" y="94" name="fh01"/>
      <point x="109" y="71" type="qcurve" name="ih01"/>
      <point x="163" y="135"/>
      <point x="269" y="263"/>
      <point x="323" y="327" type="qcurve" name="ih02"/>
      <point x="303" y="341"/>
      <point x="256" y="356"/>
      <point x="230" y="356" type="qcurve" name="sv02"/>
      <point x="195" y="356"/>
      <point x="134" y="330" name="fv01"/>
      <point x="111.5" y="307.0" type="qcurve" smooth="yes" name="inserted"/>
      <point x="89" y="284" name="fh02"/>
      <point x="63" y="223"/>
    </contour>
    <contour>
      <point x="230" y="21" type="qcurve" name="sv01"/>
      <point x="265" y="21"/>
      <point x="327" y="47" name="fh03"/>
      <point x="349.5" y="69.5" type="qcurve" smooth="yes" name="inserted"/>
      <point x="372" y="92" name="fh04"/>
      <point x="398" y="153"/>
      <point x="398" y="188" type="qcurve" name="sh02"/>
      <point x="398" y="226"/>
      <point x="367" y="290" name="fh05"/>
      <point x="341" y="313" type="qcurve" name="ih03"/>
      <point x="287" y="249"/>
      <point x="179" y="121"/>
      <point x="125" y="57" type="qcurve" name="ih04"/>
      <point x="147.5" y="39.0" name="inserted"/>
      <point x="200.0" y="21.0"/>
    </contour>
    <contour>
      <point x="35" y="188" type="qcurve" name="dh01"/>
      <point x="35" y="228"/>
      <point x="66" y="300" name="fh06"/>
      <point x="92.0" y="326.0" type="qcurve" smooth="yes" name="inserted"/>
      <point x="118" y="352" name="fh07"/>
      <point x="189" y="383"/>
      <point x="230" y="383" type="qcurve" name="at01"/>
      <point x="262" y="383"/>
      <point x="319" y="365"/>
      <point x="342" y="348" type="qcurve" name="ih05"/>
      <point x="350" y="358"/>
      <point x="366" y="377"/>
      <point x="374" y="387" type="qcurve" name="sv03"/>
      <point x="379" y="383"/>
      <point x="386" y="376"/>
      <point x="391" y="372" type="qcurve" name="mh01"/>
      <point x="383" y="363" name="fh08"/>
      <point x="367" y="344" name="fh09"/>
      <point x="359" y="335" type="qcurve" name="ih06"/>
      <point x="390" y="309" name="fh10"/>
      <point x="426" y="232"/>
      <point x="426" y="188" type="qcurve" name="dh02"/>
      <point x="426" y="147"/>
      <point x="395" y="76" name="fh11"/>
      <point x="368.5" y="50.0" type="qcurve" smooth="yes" name="inserted"/>
      <point x="342" y="24" name="fh12"/>
      <point x="271" y="-7"/>
      <point x="230" y="-7" type="qcurve" name="ab01"/>
      <point x="195" y="-7"/>
      <point x="133" y="16"/>
      <point x="108" y="36" type="qcurve" name="ih07"/>
      <point x="97" y="24"/>
      <point x="78" y="0"/>
      <point x="68" y="-12" type="qcurve" name="sv04"/>
      <point x="64" y="-8"/>
      <point x="56" y="-2"/>
      <point x="52" y="2" type="qcurve" name="mh02"/>
      <point x="62" y="15"/>
      <point x="81" y="38"/>
      <point x="91" y="50" type="qcurve" name="ih08"/>
      <point x="65" y="76" name="fh13"/>
      <point x="35" y="147"/>
    </contour>
  </outline>
</glyph>
<glyph name="thorn" format="1">
  <advance width="500"/>
  <unicode hex="00FE"/>
  <outline>
    <contour>
      <point x="16" y="-223" type="line" name="sh01"/>
      <point x="93" y="-223" type="line" name="dh01"/>
      <point x="93" y="723" type="line"/>
      <point x="16" y="723" type="line" name="sh02"/>
      <point x="16" y="750" type="line" name="at01"/>
      <point x="200" y="750" type="line"/>
      <point x="200" y="723" type="line" name="sh05"/>
      <point x="121" y="723" type="line" name="sh04"/>
      <point x="121" y="329" type="line"/>
      <point x="120" y="315"/>
      <point x="119" y="285"/>
      <point x="118" y="271" type="qcurve" name="iv01"/>
      <point x="127" y="294"/>
      <point x="160" y="334"/>
      <point x="182.5" y="349.0" type="qcurve" smooth="yes" name="inserted"/>
      <point x="205" y="364"/>
      <point x="259" y="381"/>
      <point x="289" y="381" type="qcurve" name="at02"/>
      <point x="330" y="381"/>
      <point x="401" y="350" name="fh01"/>
      <point x="427.5" y="324.0" type="qcurve" smooth="yes" name="inserted"/>
      <point x="454" y="298" name="fh02"/>
      <point x="484" y="227"/>
      <point x="484" y="187" type="qcurve" name="dh02"/>
      <point x="484" y="146"/>
      <point x="454" y="75" name="fh03"/>
      <point x="427.5" y="49.0" type="qcurve" smooth="yes" name="inserted"/>
      <point x="401" y="23" name="fh04"/>
      <point x="330" y="-8"/>
      <point x="289" y="-8" type="qcurve" name="ab01"/>
      <point x="228" y="-8"/>
      <point x="137" y="55"/>
      <point x="119" y="100" type="qcurve" name="iv02"/>
      <point x="120" y="88"/>
      <point x="121" y="64"/>
      <point x="122" y="53" type="qcurve"/>
      <point x="122" y="-223" type="line" name="sh03"/>
      <point x="204" y="-223" type="line" name="sh06"/>
      <point x="204" y="-250" type="line" name="ab02"/>
      <point x="16" y="-250" type="line"/>
    </contour>
    <contour>
      <point x="456" y="187" type="qcurve" name="sh07"/>
      <point x="456" y="222"/>
      <point x="430" y="283" name="fh05"/>
      <point x="407.5" y="305.5" type="qcurve" smooth="yes" name="inserted"/>
      <point x="385" y="328" name="fh06"/>
      <point x="324" y="354"/>
      <point x="289" y="354" type="qcurve" name="sv01"/>
      <point x="254" y="354"/>
      <point x="192" y="328"/>
      <point x="169.5" y="305.5" type="qcurve" smooth="yes" name="inserted"/>
      <point x="147" y="283" name="fh07"/>
      <point x="121" y="222"/>
      <point x="121" y="187" type="qcurve" name="sh08"/>
      <point x="121" y="152"/>
      <point x="147" y="91" name="fh08"/>
      <point x="169.5" y="68.0" type="qcurve" smooth="yes" name="inserted"/>
      <point x="192" y="45"/>
      <point x="254" y="19"/>
      <point x="289" y="19" type="qcurve" name="sv02"/>
      <point x="324" y="19"/>
      <point x="385" y="45" name="fh09"/>
      <point x="407.5" y="68.0" type="qcurve" smooth="yes" name="inserted"/>
      <point x="430" y="91" name="fh10"/>
      <point x="456" y="152"/>
    </contour>
  </outline>
</glyph>
<glyph name="quotesinglbase" format="1">
  <advance width="146"/>
  <unicode hex="201A"/>
  <outline>
    <contour>
      <point x="33" y="-48" type="qcurve" name="sv01"/>
      <point x="29" y="-43"/>
      <point x="23" y="-34"/>
      <point x="20" y="-29" type="qcurve" name="sh02"/>
      <point x="41" y="-9"/>
      <point x="60" y="50"/>
      <point x="53" y="85" type="qcurve" name="ah01"/>
      <point x="59" y="87"/>
      <point x="72" y="90"/>
      <point x="78" y="92" type="qcurve" name="sh01"/>
      <point x="86" y="52"/>
      <point x="62" y="-22"/>
    </contour>
  </outline>
</glyph>
<glyph name="quotedblright" format="1">
  <advance width="248"/>
  <unicode hex="201D"/>
  <outline>
    <contour>
      <point x="50" y="571" type="qcurve" name="sv01"/>
      <point x="47" y="576"/>
      <point x="41" y="585"/>
      <point x="37" y="590" type="qcurve" name="sh01"/>
      <point x="58" y="610"/>
      <point x="77" y="669"/>
      <point x="70" y="704" type="qcurve" name="sh02"/>
      <point x="77" y="706"/>
      <point x="90" y="709"/>
      <point x="96" y="711" type="qcurve" name="ah01"/>
      <point x="104" y="671"/>
      <point x="79" y="597"/>
    </contour>
    <contour>
      <point x="154" y="571" type="qcurve" name="fh01"/>
      <point x="151" y="576"/>
      <point x="145" y="585"/>
      <point x="141" y="590" type="qcurve" name="sh05"/>
      <point x="162" y="610"/>
      <point x="181" y="669"/>
      <point x="174" y="704" type="qcurve" name="sh03"/>
      <point x="181" y="706"/>
      <point x="194" y="709"/>
      <point x="200" y="711" type="qcurve" name="sh04"/>
      <point x="208" y="671"/>
      <point x="183" y="597"/>
    </contour>
  </outline>
</glyph>
<glyph name="quotedblbase" format="1">
  <advance width="255"/>
  <unicode hex="201E"/>
  <outline>
    <contour>
      <point x="33" y="-48" type="qcurve" name="sv01"/>
      <point x="29" y="-43"/>
      <point x="23" y="-34"/>
      <point x="20" y="-29" type="qcurve" name="sh01"/>
      <point x="41" y="-9"/>
      <point x="60" y="50"/>
      <point x="53" y="85" type="qcurve" name="sh02"/>
      <point x="59" y="87"/>
      <point x="72" y="90"/>
      <point x="78" y="92" type="qcurve" name="ah01"/>
      <point x="86" y="52"/>
      <point x="62" y="-22"/>
    </contour>
    <contour>
      <point x="137" y="-48" type="qcurve" name="sv02"/>
      <point x="133" y="-43"/>
      <point x="127" y="-34"/>
      <point x="124" y="-29" type="qcurve" name="sh05"/>
      <point x="145" y="-9"/>
      <point x="164" y="50"/>
      <point x="157" y="85" type="qcurve" name="sh03"/>
      <point x="163" y="87"/>
      <point x="176" y="90"/>
      <point x="182" y="92" type="qcurve" name="sh04"/>
      <point x="190" y="52"/>
      <point x="166" y="-22"/>
    </contour>
  </outline>
</glyph>
<glyph name="bullet" format="1">
  <advance width="479"/>
  <unicode hex="2022"/>
  <outline>
    <contour>
      <point x="162" y="300" type="qcurve" name="dh01"/>
      <point x="162" y="333"/>
      <point x="207" y="378"/>
      <point x="239" y="378" type="qcurve" name="dv02"/>
      <point x="272" y="378"/>
      <point x="317" y="333"/>
      <point x="317" y="300" type="qcurve" name="dh02"/>
      <point x="317" y="268"/>
      <point x="272" y="223"/>
      <point x="239" y="223" type="qcurve" name="dv01"/>
      <point x="207" y="223"/>
      <point x="162" y="268"/>
    </contour>
  </outline>
</glyph>
